<svg xmlns="http://www.w3.org/2000/svg" xmlns:xlink="http://www.w3.org/1999/xlink" width="1920" zoomAndPan="magnify" viewBox="0 0 1440 809.999993" height="1080" preserveAspectRatio="xMidYMid meet" version="1.0"><defs><filter x="0%" y="0%" width="100%" height="100%" id="8e7ecd6e0b"><feColorMatrix values="0 0 0 0 1 0 0 0 0 1 0 0 0 0 1 0 0 0 1 0" color-interpolation-filters="sRGB"/></filter><g/><mask id="f6440c47e8"><g filter="url(#8e7ecd6e0b)"><rect x="-144" width="1728" fill="#000000" y="-80.999999" height="971.999992" fill-opacity="0.75"/></g></mask><clipPath id="be3addaca6"><path d="M 0.078125 0.960938 L 390.320312 0.960938 L 390.320312 165.839844 L 0.078125 165.839844 Z M 0.078125 0.960938 " clip-rule="nonzero"/></clipPath><clipPath id="de83040709"><path d="M 152 152 L 239 152 L 239 165.839844 L 152 165.839844 Z M 152 152 " clip-rule="nonzero"/></clipPath><clipPath id="f412dba457"><path d="M 8 0.160156 L 15 0.160156 L 15 11 L 8 11 Z M 8 0.160156 " clip-rule="nonzero"/></clipPath><clipPath id="b89c190c2e"><rect x="0" width="87" y="0" height="14"/></clipPath><clipPath id="8e5f0708e7"><rect x="0" width="391" y="0" height="166"/></clipPath><clipPath id="f85cfc8118"><rect x="0" width="391" y="0" height="166"/></clipPath></defs><g mask="url(#f6440c47e8)"><g transform="matrix(1, 0, 0, 1, 976, 18)"><g clip-path="url(#f85cfc8118)"><g clip-path="url(#be3addaca6)"><g transform="matrix(1, 0, 0, 1, 0, 0.00000000000003908)"><g clip-path="url(#8e5f0708e7)"><g fill="#000000" fill-opacity="1"><g transform="translate(0.751804, 150.35278)"><g><path d="M 0.96875 0 L 0.96875 -9.359375 L 7.25 -9.359375 L 7.25 -7.765625 L 2.796875 -7.765625 L 2.796875 -5.34375 L 6.5 -5.34375 L 6.5 -3.875 L 2.796875 -3.875 L 2.796875 0 Z M 0.96875 0 "/></g></g></g><g fill="#000000" fill-opacity="1"><g transform="translate(8.834571, 150.35278)"><g><path d="M 0.96875 0 L 0.96875 -9.359375 L 5.109375 -9.359375 C 5.535156 -9.359375 5.929688 -9.269531 6.296875 -9.09375 C 6.660156 -8.914062 6.976562 -8.675781 7.25 -8.375 C 7.519531 -8.070312 7.726562 -7.738281 7.875 -7.375 C 8.019531 -7.007812 8.09375 -6.632812 8.09375 -6.25 C 8.09375 -5.851562 8.019531 -5.472656 7.875 -5.109375 C 7.738281 -4.742188 7.546875 -4.421875 7.296875 -4.140625 C 7.046875 -3.867188 6.75 -3.660156 6.40625 -3.515625 L 8.53125 0 L 6.53125 0 L 4.609375 -3.140625 L 2.796875 -3.140625 L 2.796875 0 Z M 2.796875 -4.734375 L 5.078125 -4.734375 C 5.296875 -4.734375 5.492188 -4.800781 5.671875 -4.9375 C 5.847656 -5.070312 5.988281 -5.253906 6.09375 -5.484375 C 6.195312 -5.710938 6.25 -5.96875 6.25 -6.25 C 6.25 -6.539062 6.1875 -6.796875 6.0625 -7.015625 C 5.945312 -7.242188 5.796875 -7.425781 5.609375 -7.5625 C 5.421875 -7.695312 5.210938 -7.765625 4.984375 -7.765625 L 2.796875 -7.765625 Z M 2.796875 -4.734375 "/></g></g></g><g fill="#000000" fill-opacity="1"><g transform="translate(18.115272, 150.35278)"><g><path d="M 3.515625 -9.359375 L 5.359375 -9.359375 L 8.796875 0 L 6.921875 0 L 6.0625 -2.328125 L 2.796875 -2.328125 L 1.9375 0 L 0.0625 0 Z M 5.734375 -3.609375 L 4.4375 -7.46875 L 3.09375 -3.609375 Z M 5.734375 -3.609375 "/></g></g></g><g fill="#000000" fill-opacity="1"><g transform="translate(27.48813, 150.35278)"><g><path d="M 2.796875 -6 L 2.796875 0 L 0.96875 0 L 0.96875 -9.359375 L 2.421875 -9.359375 L 7.25 -3.1875 L 7.25 -9.34375 L 9.078125 -9.34375 L 9.078125 0 L 7.5625 0 Z M 2.796875 -6 "/></g></g></g><g fill="#000000" fill-opacity="1"><g transform="translate(38.058922, 150.35278)"><g><path d="M 0.40625 -4.734375 C 0.40625 -5.304688 0.507812 -5.867188 0.71875 -6.421875 C 0.925781 -6.972656 1.226562 -7.472656 1.625 -7.921875 C 2.019531 -8.367188 2.5 -8.726562 3.0625 -9 C 3.632812 -9.269531 4.285156 -9.40625 5.015625 -9.40625 C 5.878906 -9.40625 6.625 -9.210938 7.25 -8.828125 C 7.875 -8.453125 8.34375 -7.960938 8.65625 -7.359375 L 7.25 -6.40625 C 7.09375 -6.75 6.882812 -7.023438 6.625 -7.234375 C 6.375 -7.441406 6.101562 -7.585938 5.8125 -7.671875 C 5.53125 -7.753906 5.25 -7.796875 4.96875 -7.796875 C 4.507812 -7.796875 4.109375 -7.703125 3.765625 -7.515625 C 3.429688 -7.335938 3.148438 -7.097656 2.921875 -6.796875 C 2.691406 -6.492188 2.519531 -6.160156 2.40625 -5.796875 C 2.300781 -5.429688 2.25 -5.0625 2.25 -4.6875 C 2.25 -4.269531 2.3125 -3.867188 2.4375 -3.484375 C 2.570312 -3.109375 2.757812 -2.773438 3 -2.484375 C 3.25 -2.191406 3.539062 -1.957031 3.875 -1.78125 C 4.21875 -1.613281 4.585938 -1.53125 4.984375 -1.53125 C 5.273438 -1.53125 5.570312 -1.578125 5.875 -1.671875 C 6.175781 -1.765625 6.453125 -1.914062 6.703125 -2.125 C 6.960938 -2.34375 7.160156 -2.617188 7.296875 -2.953125 L 8.78125 -2.09375 C 8.601562 -1.625 8.300781 -1.226562 7.875 -0.90625 C 7.457031 -0.582031 6.988281 -0.335938 6.46875 -0.171875 C 5.957031 -0.00390625 5.445312 0.078125 4.9375 0.078125 C 4.269531 0.078125 3.660156 -0.0546875 3.109375 -0.328125 C 2.554688 -0.609375 2.078125 -0.976562 1.671875 -1.4375 C 1.273438 -1.90625 0.960938 -2.425781 0.734375 -3 C 0.515625 -3.570312 0.40625 -4.148438 0.40625 -4.734375 Z M 0.40625 -4.734375 "/></g></g></g><g fill="#000000" fill-opacity="1"><g transform="translate(47.616077, 150.35278)"><g><path d="M 0.96875 0 L 0.96875 -9.359375 L 2.796875 -9.359375 L 2.796875 0 Z M 0.96875 0 "/></g></g></g><g fill="#000000" fill-opacity="1"><g transform="translate(51.90758, 150.35278)"><g><path d="M 6.546875 -6.90625 C 6.484375 -6.96875 6.367188 -7.050781 6.203125 -7.15625 C 6.046875 -7.257812 5.847656 -7.359375 5.609375 -7.453125 C 5.378906 -7.546875 5.128906 -7.628906 4.859375 -7.703125 C 4.585938 -7.785156 4.3125 -7.828125 4.03125 -7.828125 C 3.539062 -7.828125 3.171875 -7.734375 2.921875 -7.546875 C 2.671875 -7.359375 2.546875 -7.097656 2.546875 -6.765625 C 2.546875 -6.515625 2.625 -6.3125 2.78125 -6.15625 C 2.9375 -6.007812 3.171875 -5.882812 3.484375 -5.78125 C 3.804688 -5.675781 4.203125 -5.5625 4.671875 -5.4375 C 5.285156 -5.289062 5.816406 -5.109375 6.265625 -4.890625 C 6.722656 -4.679688 7.070312 -4.398438 7.3125 -4.046875 C 7.550781 -3.703125 7.671875 -3.242188 7.671875 -2.671875 C 7.671875 -2.171875 7.578125 -1.742188 7.390625 -1.390625 C 7.210938 -1.035156 6.960938 -0.75 6.640625 -0.53125 C 6.316406 -0.3125 5.945312 -0.148438 5.53125 -0.046875 C 5.113281 0.0546875 4.675781 0.109375 4.21875 0.109375 C 3.75 0.109375 3.28125 0.0625 2.8125 -0.03125 C 2.351562 -0.132812 1.90625 -0.273438 1.46875 -0.453125 C 1.039062 -0.628906 0.648438 -0.847656 0.296875 -1.109375 L 1.09375 -2.671875 C 1.175781 -2.597656 1.316406 -2.492188 1.515625 -2.359375 C 1.710938 -2.234375 1.957031 -2.109375 2.25 -1.984375 C 2.539062 -1.859375 2.859375 -1.75 3.203125 -1.65625 C 3.546875 -1.570312 3.890625 -1.53125 4.234375 -1.53125 C 4.734375 -1.53125 5.109375 -1.613281 5.359375 -1.78125 C 5.617188 -1.945312 5.75 -2.179688 5.75 -2.484375 C 5.75 -2.765625 5.644531 -2.984375 5.4375 -3.140625 C 5.238281 -3.304688 4.957031 -3.445312 4.59375 -3.5625 C 4.238281 -3.675781 3.8125 -3.804688 3.3125 -3.953125 C 2.726562 -4.117188 2.238281 -4.304688 1.84375 -4.515625 C 1.445312 -4.722656 1.148438 -4.984375 0.953125 -5.296875 C 0.765625 -5.609375 0.671875 -6.003906 0.671875 -6.484375 C 0.671875 -7.117188 0.820312 -7.65625 1.125 -8.09375 C 1.425781 -8.53125 1.835938 -8.859375 2.359375 -9.078125 C 2.878906 -9.304688 3.453125 -9.421875 4.078125 -9.421875 C 4.515625 -9.421875 4.929688 -9.367188 5.328125 -9.265625 C 5.722656 -9.171875 6.085938 -9.046875 6.421875 -8.890625 C 6.765625 -8.734375 7.070312 -8.5625 7.34375 -8.375 Z M 6.546875 -6.90625 "/></g></g></g><g fill="#000000" fill-opacity="1"><g transform="translate(60.503753, 150.35278)"><g><path d="M 0.40625 -4.734375 C 0.40625 -5.304688 0.507812 -5.867188 0.71875 -6.421875 C 0.925781 -6.972656 1.226562 -7.472656 1.625 -7.921875 C 2.019531 -8.367188 2.5 -8.726562 3.0625 -9 C 3.632812 -9.269531 4.285156 -9.40625 5.015625 -9.40625 C 5.878906 -9.40625 6.625 -9.210938 7.25 -8.828125 C 7.875 -8.453125 8.34375 -7.960938 8.65625 -7.359375 L 7.25 -6.40625 C 7.09375 -6.75 6.882812 -7.023438 6.625 -7.234375 C 6.375 -7.441406 6.101562 -7.585938 5.8125 -7.671875 C 5.53125 -7.753906 5.25 -7.796875 4.96875 -7.796875 C 4.507812 -7.796875 4.109375 -7.703125 3.765625 -7.515625 C 3.429688 -7.335938 3.148438 -7.097656 2.921875 -6.796875 C 2.691406 -6.492188 2.519531 -6.160156 2.40625 -5.796875 C 2.300781 -5.429688 2.25 -5.0625 2.25 -4.6875 C 2.25 -4.269531 2.3125 -3.867188 2.4375 -3.484375 C 2.570312 -3.109375 2.757812 -2.773438 3 -2.484375 C 3.25 -2.191406 3.539062 -1.957031 3.875 -1.78125 C 4.21875 -1.613281 4.585938 -1.53125 4.984375 -1.53125 C 5.273438 -1.53125 5.570312 -1.578125 5.875 -1.671875 C 6.175781 -1.765625 6.453125 -1.914062 6.703125 -2.125 C 6.960938 -2.34375 7.160156 -2.617188 7.296875 -2.953125 L 8.78125 -2.09375 C 8.601562 -1.625 8.300781 -1.226562 7.875 -0.90625 C 7.457031 -0.582031 6.988281 -0.335938 6.46875 -0.171875 C 5.957031 -0.00390625 5.445312 0.078125 4.9375 0.078125 C 4.269531 0.078125 3.660156 -0.0546875 3.109375 -0.328125 C 2.554688 -0.609375 2.078125 -0.976562 1.671875 -1.4375 C 1.273438 -1.90625 0.960938 -2.425781 0.734375 -3 C 0.515625 -3.570312 0.40625 -4.148438 0.40625 -4.734375 Z M 0.40625 -4.734375 "/></g></g></g><g fill="#000000" fill-opacity="1"><g transform="translate(70.060908, 150.35278)"><g><path d="M 4.96875 0.0625 C 4.28125 0.0625 3.65625 -0.0664062 3.09375 -0.328125 C 2.539062 -0.585938 2.0625 -0.941406 1.65625 -1.390625 C 1.257812 -1.847656 0.953125 -2.359375 0.734375 -2.921875 C 0.515625 -3.492188 0.40625 -4.078125 0.40625 -4.671875 C 0.40625 -5.296875 0.519531 -5.890625 0.75 -6.453125 C 0.988281 -7.023438 1.3125 -7.53125 1.71875 -7.96875 C 2.125 -8.414062 2.601562 -8.769531 3.15625 -9.03125 C 3.71875 -9.289062 4.332031 -9.421875 5 -9.421875 C 5.675781 -9.421875 6.289062 -9.28125 6.84375 -9 C 7.40625 -8.726562 7.882812 -8.363281 8.28125 -7.90625 C 8.675781 -7.457031 8.984375 -6.953125 9.203125 -6.390625 C 9.421875 -5.828125 9.53125 -5.25 9.53125 -4.65625 C 9.53125 -4.039062 9.414062 -3.445312 9.1875 -2.875 C 8.957031 -2.3125 8.640625 -1.804688 8.234375 -1.359375 C 7.828125 -0.921875 7.34375 -0.570312 6.78125 -0.3125 C 6.226562 -0.0625 5.625 0.0625 4.96875 0.0625 Z M 2.25 -4.671875 C 2.25 -4.265625 2.3125 -3.875 2.4375 -3.5 C 2.5625 -3.125 2.738281 -2.789062 2.96875 -2.5 C 3.195312 -2.207031 3.476562 -1.972656 3.8125 -1.796875 C 4.15625 -1.628906 4.546875 -1.546875 4.984375 -1.546875 C 5.421875 -1.546875 5.8125 -1.632812 6.15625 -1.8125 C 6.5 -1.988281 6.78125 -2.226562 7 -2.53125 C 7.226562 -2.832031 7.398438 -3.171875 7.515625 -3.546875 C 7.640625 -3.921875 7.703125 -4.296875 7.703125 -4.671875 C 7.703125 -5.078125 7.640625 -5.46875 7.515625 -5.84375 C 7.390625 -6.21875 7.207031 -6.550781 6.96875 -6.84375 C 6.738281 -7.132812 6.453125 -7.363281 6.109375 -7.53125 C 5.773438 -7.707031 5.398438 -7.796875 4.984375 -7.796875 C 4.535156 -7.796875 4.140625 -7.703125 3.796875 -7.515625 C 3.460938 -7.335938 3.179688 -7.097656 2.953125 -6.796875 C 2.722656 -6.503906 2.546875 -6.171875 2.421875 -5.796875 C 2.304688 -5.429688 2.25 -5.054688 2.25 -4.671875 Z M 2.25 -4.671875 "/></g></g></g><g fill="#000000" fill-opacity="1"><g transform="translate(80.539551, 150.35278)"><g/></g></g><g fill="#000000" fill-opacity="1"><g transform="translate(84.225501, 150.35278)"><g><path d="M 8.59375 0 L 8.59375 -6.140625 L 6.203125 -1.5625 L 5.1875 -1.5625 L 2.796875 -6.140625 L 2.796875 0 L 0.96875 0 L 0.96875 -9.359375 L 2.921875 -9.359375 L 5.6875 -4.03125 L 8.484375 -9.359375 L 10.421875 -9.359375 L 10.421875 0 Z M 8.59375 0 "/></g></g></g><g fill="#000000" fill-opacity="1"><g transform="translate(96.139028, 150.35278)"><g><path d="M 3.515625 -9.359375 L 5.359375 -9.359375 L 8.796875 0 L 6.921875 0 L 6.0625 -2.328125 L 2.796875 -2.328125 L 1.9375 0 L 0.0625 0 Z M 5.734375 -3.609375 L 4.4375 -7.46875 L 3.09375 -3.609375 Z M 5.734375 -3.609375 "/></g></g></g><g fill="#000000" fill-opacity="1"><g transform="translate(105.511886, 150.35278)"><g><path d="M 7.96875 -7.765625 L 4.984375 -7.765625 L 4.984375 0 L 3.171875 0 L 3.171875 -7.765625 L 0.1875 -7.765625 L 0.1875 -9.359375 L 7.96875 -9.359375 Z M 7.96875 -7.765625 "/></g></g></g><g fill="#000000" fill-opacity="1"><g transform="translate(114.187042, 150.35278)"><g><path d="M 3.515625 -9.359375 L 5.359375 -9.359375 L 8.796875 0 L 6.921875 0 L 6.0625 -2.328125 L 2.796875 -2.328125 L 1.9375 0 L 0.0625 0 Z M 5.734375 -3.609375 L 4.4375 -7.46875 L 3.09375 -3.609375 Z M 5.734375 -3.609375 "/></g></g></g><g fill="#000000" fill-opacity="1"><g transform="translate(123.5599, 150.35278)"><g><path d="M 0.96875 0 L 0.96875 -9.359375 L 5.109375 -9.359375 C 5.535156 -9.359375 5.929688 -9.269531 6.296875 -9.09375 C 6.660156 -8.914062 6.976562 -8.675781 7.25 -8.375 C 7.519531 -8.070312 7.726562 -7.738281 7.875 -7.375 C 8.019531 -7.007812 8.09375 -6.632812 8.09375 -6.25 C 8.09375 -5.851562 8.019531 -5.472656 7.875 -5.109375 C 7.738281 -4.742188 7.546875 -4.421875 7.296875 -4.140625 C 7.046875 -3.867188 6.75 -3.660156 6.40625 -3.515625 L 8.53125 0 L 6.53125 0 L 4.609375 -3.140625 L 2.796875 -3.140625 L 2.796875 0 Z M 2.796875 -4.734375 L 5.078125 -4.734375 C 5.296875 -4.734375 5.492188 -4.800781 5.671875 -4.9375 C 5.847656 -5.070312 5.988281 -5.253906 6.09375 -5.484375 C 6.195312 -5.710938 6.25 -5.96875 6.25 -6.25 C 6.25 -6.539062 6.1875 -6.796875 6.0625 -7.015625 C 5.945312 -7.242188 5.796875 -7.425781 5.609375 -7.5625 C 5.421875 -7.695312 5.210938 -7.765625 4.984375 -7.765625 L 2.796875 -7.765625 Z M 2.796875 -4.734375 "/></g></g></g><g fill="#000000" fill-opacity="1"><g transform="translate(132.840601, 150.35278)"><g><path d="M 3.515625 -9.359375 L 5.359375 -9.359375 L 8.796875 0 L 6.921875 0 L 6.0625 -2.328125 L 2.796875 -2.328125 L 1.9375 0 L 0.0625 0 Z M 5.734375 -3.609375 L 4.4375 -7.46875 L 3.09375 -3.609375 Z M 5.734375 -3.609375 "/></g></g></g><g fill="#000000" fill-opacity="1"><g transform="translate(142.213467, 150.35278)"><g><path d="M 0.390625 -1.375 L 5.609375 -7.765625 L 0.546875 -7.765625 L 0.546875 -9.359375 L 7.765625 -9.359375 L 7.765625 -7.984375 L 2.734375 -1.59375 L 7.8125 -1.59375 L 7.8125 0 L 0.390625 0 Z M 0.390625 -1.375 "/></g></g></g><g fill="#000000" fill-opacity="1"><g transform="translate(150.993929, 150.35278)"><g><path d="M 0.390625 -1.375 L 5.609375 -7.765625 L 0.546875 -7.765625 L 0.546875 -9.359375 L 7.765625 -9.359375 L 7.765625 -7.984375 L 2.734375 -1.59375 L 7.8125 -1.59375 L 7.8125 0 L 0.390625 0 Z M 0.390625 -1.375 "/></g></g></g><g fill="#000000" fill-opacity="1"><g transform="translate(159.77439, 150.35278)"><g><path d="M 4.96875 0.0625 C 4.28125 0.0625 3.65625 -0.0664062 3.09375 -0.328125 C 2.539062 -0.585938 2.0625 -0.941406 1.65625 -1.390625 C 1.257812 -1.847656 0.953125 -2.359375 0.734375 -2.921875 C 0.515625 -3.492188 0.40625 -4.078125 0.40625 -4.671875 C 0.40625 -5.296875 0.519531 -5.890625 0.75 -6.453125 C 0.988281 -7.023438 1.3125 -7.53125 1.71875 -7.96875 C 2.125 -8.414062 2.601562 -8.769531 3.15625 -9.03125 C 3.71875 -9.289062 4.332031 -9.421875 5 -9.421875 C 5.675781 -9.421875 6.289062 -9.28125 6.84375 -9 C 7.40625 -8.726562 7.882812 -8.363281 8.28125 -7.90625 C 8.675781 -7.457031 8.984375 -6.953125 9.203125 -6.390625 C 9.421875 -5.828125 9.53125 -5.25 9.53125 -4.65625 C 9.53125 -4.039062 9.414062 -3.445312 9.1875 -2.875 C 8.957031 -2.3125 8.640625 -1.804688 8.234375 -1.359375 C 7.828125 -0.921875 7.34375 -0.570312 6.78125 -0.3125 C 6.226562 -0.0625 5.625 0.0625 4.96875 0.0625 Z M 2.25 -4.671875 C 2.25 -4.265625 2.3125 -3.875 2.4375 -3.5 C 2.5625 -3.125 2.738281 -2.789062 2.96875 -2.5 C 3.195312 -2.207031 3.476562 -1.972656 3.8125 -1.796875 C 4.15625 -1.628906 4.546875 -1.546875 4.984375 -1.546875 C 5.421875 -1.546875 5.8125 -1.632812 6.15625 -1.8125 C 6.5 -1.988281 6.78125 -2.226562 7 -2.53125 C 7.226562 -2.832031 7.398438 -3.171875 7.515625 -3.546875 C 7.640625 -3.921875 7.703125 -4.296875 7.703125 -4.671875 C 7.703125 -5.078125 7.640625 -5.46875 7.515625 -5.84375 C 7.390625 -6.21875 7.207031 -6.550781 6.96875 -6.84375 C 6.738281 -7.132812 6.453125 -7.363281 6.109375 -7.53125 C 5.773438 -7.707031 5.398438 -7.796875 4.984375 -7.796875 C 4.535156 -7.796875 4.140625 -7.703125 3.796875 -7.515625 C 3.460938 -7.335938 3.179688 -7.097656 2.953125 -6.796875 C 2.722656 -6.503906 2.546875 -6.171875 2.421875 -5.796875 C 2.304688 -5.429688 2.25 -5.054688 2.25 -4.671875 Z M 2.25 -4.671875 "/></g></g></g><g fill="#000000" fill-opacity="1"><g transform="translate(170.253033, 150.35278)"><g><path d="M 0.765625 -2.8125 L 0.765625 -4.40625 L 4.75 -4.40625 L 4.75 -2.8125 Z M 0.765625 -2.8125 "/></g></g></g><g fill="#000000" fill-opacity="1"><g transform="translate(176.282206, 150.35278)"><g><path d="M 0.96875 0 L 0.96875 -9.359375 L 5.109375 -9.359375 C 5.535156 -9.359375 5.929688 -9.269531 6.296875 -9.09375 C 6.660156 -8.914062 6.976562 -8.675781 7.25 -8.375 C 7.519531 -8.070312 7.726562 -7.738281 7.875 -7.375 C 8.019531 -7.007812 8.09375 -6.632812 8.09375 -6.25 C 8.09375 -5.851562 8.019531 -5.472656 7.875 -5.109375 C 7.738281 -4.742188 7.546875 -4.421875 7.296875 -4.140625 C 7.046875 -3.867188 6.75 -3.660156 6.40625 -3.515625 L 8.53125 0 L 6.53125 0 L 4.609375 -3.140625 L 2.796875 -3.140625 L 2.796875 0 Z M 2.796875 -4.734375 L 5.078125 -4.734375 C 5.296875 -4.734375 5.492188 -4.800781 5.671875 -4.9375 C 5.847656 -5.070312 5.988281 -5.253906 6.09375 -5.484375 C 6.195312 -5.710938 6.25 -5.96875 6.25 -6.25 C 6.25 -6.539062 6.1875 -6.796875 6.0625 -7.015625 C 5.945312 -7.242188 5.796875 -7.425781 5.609375 -7.5625 C 5.421875 -7.695312 5.210938 -7.765625 4.984375 -7.765625 L 2.796875 -7.765625 Z M 2.796875 -4.734375 "/></g></g></g><g fill="#000000" fill-opacity="1"><g transform="translate(185.562915, 150.35278)"><g><path d="M 4.9375 0.0625 C 4.1875 0.0625 3.550781 -0.0625 3.03125 -0.3125 C 2.507812 -0.5625 2.085938 -0.90625 1.765625 -1.34375 C 1.453125 -1.78125 1.21875 -2.273438 1.0625 -2.828125 C 0.914062 -3.390625 0.84375 -3.972656 0.84375 -4.578125 L 0.84375 -9.359375 L 2.65625 -9.359375 L 2.65625 -4.578125 C 2.65625 -4.191406 2.691406 -3.816406 2.765625 -3.453125 C 2.847656 -3.085938 2.972656 -2.757812 3.140625 -2.46875 C 3.316406 -2.1875 3.550781 -1.960938 3.84375 -1.796875 C 4.132812 -1.628906 4.492188 -1.546875 4.921875 -1.546875 C 5.359375 -1.546875 5.722656 -1.628906 6.015625 -1.796875 C 6.316406 -1.972656 6.550781 -2.203125 6.71875 -2.484375 C 6.894531 -2.773438 7.019531 -3.101562 7.09375 -3.46875 C 7.175781 -3.832031 7.21875 -4.203125 7.21875 -4.578125 L 7.21875 -9.359375 L 9.015625 -9.359375 L 9.015625 -4.578125 C 9.015625 -3.941406 8.9375 -3.34375 8.78125 -2.78125 C 8.632812 -2.21875 8.394531 -1.722656 8.0625 -1.296875 C 7.738281 -0.867188 7.316406 -0.535156 6.796875 -0.296875 C 6.273438 -0.0546875 5.65625 0.0625 4.9375 0.0625 Z M 4.9375 0.0625 "/></g></g></g><g fill="#000000" fill-opacity="1"><g transform="translate(195.962566, 150.35278)"><g><path d="M 3.515625 -9.359375 L 5.359375 -9.359375 L 8.796875 0 L 6.921875 0 L 6.0625 -2.328125 L 2.796875 -2.328125 L 1.9375 0 L 0.0625 0 Z M 5.734375 -3.609375 L 4.4375 -7.46875 L 3.09375 -3.609375 Z M 5.734375 -3.609375 "/></g></g></g><g fill="#000000" fill-opacity="1"><g transform="translate(205.335424, 150.35278)"><g/></g></g><g fill="#000000" fill-opacity="1"><g transform="translate(209.021374, 150.35278)"><g><path d="M 0.40625 -4.734375 C 0.40625 -5.304688 0.507812 -5.867188 0.71875 -6.421875 C 0.925781 -6.972656 1.226562 -7.472656 1.625 -7.921875 C 2.019531 -8.367188 2.5 -8.726562 3.0625 -9 C 3.632812 -9.269531 4.285156 -9.40625 5.015625 -9.40625 C 5.878906 -9.40625 6.625 -9.210938 7.25 -8.828125 C 7.875 -8.453125 8.34375 -7.960938 8.65625 -7.359375 L 7.25 -6.40625 C 7.09375 -6.75 6.882812 -7.023438 6.625 -7.234375 C 6.375 -7.441406 6.101562 -7.585938 5.8125 -7.671875 C 5.53125 -7.753906 5.25 -7.796875 4.96875 -7.796875 C 4.507812 -7.796875 4.109375 -7.703125 3.765625 -7.515625 C 3.429688 -7.335938 3.148438 -7.097656 2.921875 -6.796875 C 2.691406 -6.492188 2.519531 -6.160156 2.40625 -5.796875 C 2.300781 -5.429688 2.25 -5.0625 2.25 -4.6875 C 2.25 -4.269531 2.3125 -3.867188 2.4375 -3.484375 C 2.570312 -3.109375 2.757812 -2.773438 3 -2.484375 C 3.25 -2.191406 3.539062 -1.957031 3.875 -1.78125 C 4.21875 -1.613281 4.585938 -1.53125 4.984375 -1.53125 C 5.273438 -1.53125 5.570312 -1.578125 5.875 -1.671875 C 6.175781 -1.765625 6.453125 -1.914062 6.703125 -2.125 C 6.960938 -2.34375 7.160156 -2.617188 7.296875 -2.953125 L 8.78125 -2.09375 C 8.601562 -1.625 8.300781 -1.226562 7.875 -0.90625 C 7.457031 -0.582031 6.988281 -0.335938 6.46875 -0.171875 C 5.957031 -0.00390625 5.445312 0.078125 4.9375 0.078125 C 4.269531 0.078125 3.660156 -0.0546875 3.109375 -0.328125 C 2.554688 -0.609375 2.078125 -0.976562 1.671875 -1.4375 C 1.273438 -1.90625 0.960938 -2.425781 0.734375 -3 C 0.515625 -3.570312 0.40625 -4.148438 0.40625 -4.734375 Z M 0.40625 -4.734375 "/></g></g></g><g fill="#000000" fill-opacity="1"><g transform="translate(218.578529, 150.35278)"><g><path d="M 4.96875 0.0625 C 4.28125 0.0625 3.65625 -0.0664062 3.09375 -0.328125 C 2.539062 -0.585938 2.0625 -0.941406 1.65625 -1.390625 C 1.257812 -1.847656 0.953125 -2.359375 0.734375 -2.921875 C 0.515625 -3.492188 0.40625 -4.078125 0.40625 -4.671875 C 0.40625 -5.296875 0.519531 -5.890625 0.75 -6.453125 C 0.988281 -7.023438 1.3125 -7.53125 1.71875 -7.96875 C 2.125 -8.414062 2.601562 -8.769531 3.15625 -9.03125 C 3.71875 -9.289062 4.332031 -9.421875 5 -9.421875 C 5.675781 -9.421875 6.289062 -9.28125 6.84375 -9 C 7.40625 -8.726562 7.882812 -8.363281 8.28125 -7.90625 C 8.675781 -7.457031 8.984375 -6.953125 9.203125 -6.390625 C 9.421875 -5.828125 9.53125 -5.25 9.53125 -4.65625 C 9.53125 -4.039062 9.414062 -3.445312 9.1875 -2.875 C 8.957031 -2.3125 8.640625 -1.804688 8.234375 -1.359375 C 7.828125 -0.921875 7.34375 -0.570312 6.78125 -0.3125 C 6.226562 -0.0625 5.625 0.0625 4.96875 0.0625 Z M 2.25 -4.671875 C 2.25 -4.265625 2.3125 -3.875 2.4375 -3.5 C 2.5625 -3.125 2.738281 -2.789062 2.96875 -2.5 C 3.195312 -2.207031 3.476562 -1.972656 3.8125 -1.796875 C 4.15625 -1.628906 4.546875 -1.546875 4.984375 -1.546875 C 5.421875 -1.546875 5.8125 -1.632812 6.15625 -1.8125 C 6.5 -1.988281 6.78125 -2.226562 7 -2.53125 C 7.226562 -2.832031 7.398438 -3.171875 7.515625 -3.546875 C 7.640625 -3.921875 7.703125 -4.296875 7.703125 -4.671875 C 7.703125 -5.078125 7.640625 -5.46875 7.515625 -5.84375 C 7.390625 -6.21875 7.207031 -6.550781 6.96875 -6.84375 C 6.738281 -7.132812 6.453125 -7.363281 6.109375 -7.53125 C 5.773438 -7.707031 5.398438 -7.796875 4.984375 -7.796875 C 4.535156 -7.796875 4.140625 -7.703125 3.796875 -7.515625 C 3.460938 -7.335938 3.179688 -7.097656 2.953125 -6.796875 C 2.722656 -6.503906 2.546875 -6.171875 2.421875 -5.796875 C 2.304688 -5.429688 2.25 -5.054688 2.25 -4.671875 Z M 2.25 -4.671875 "/></g></g></g><g fill="#000000" fill-opacity="1"><g transform="translate(229.057172, 150.35278)"><g><path d="M 0.96875 0 L 0.96875 -9.359375 L 5.109375 -9.359375 C 5.535156 -9.359375 5.929688 -9.269531 6.296875 -9.09375 C 6.660156 -8.914062 6.976562 -8.675781 7.25 -8.375 C 7.519531 -8.070312 7.726562 -7.738281 7.875 -7.375 C 8.019531 -7.007812 8.09375 -6.632812 8.09375 -6.25 C 8.09375 -5.851562 8.019531 -5.472656 7.875 -5.109375 C 7.738281 -4.742188 7.546875 -4.421875 7.296875 -4.140625 C 7.046875 -3.867188 6.75 -3.660156 6.40625 -3.515625 L 8.53125 0 L 6.53125 0 L 4.609375 -3.140625 L 2.796875 -3.140625 L 2.796875 0 Z M 2.796875 -4.734375 L 5.078125 -4.734375 C 5.296875 -4.734375 5.492188 -4.800781 5.671875 -4.9375 C 5.847656 -5.070312 5.988281 -5.253906 6.09375 -5.484375 C 6.195312 -5.710938 6.25 -5.96875 6.25 -6.25 C 6.25 -6.539062 6.1875 -6.796875 6.0625 -7.015625 C 5.945312 -7.242188 5.796875 -7.425781 5.609375 -7.5625 C 5.421875 -7.695312 5.210938 -7.765625 4.984375 -7.765625 L 2.796875 -7.765625 Z M 2.796875 -4.734375 "/></g></g></g><g fill="#000000" fill-opacity="1"><g transform="translate(238.337881, 150.35278)"><g><path d="M 0.96875 0 L 0.96875 -9.359375 L 5.109375 -9.359375 C 5.535156 -9.359375 5.929688 -9.269531 6.296875 -9.09375 C 6.660156 -8.914062 6.976562 -8.675781 7.25 -8.375 C 7.519531 -8.070312 7.726562 -7.738281 7.875 -7.375 C 8.019531 -7.007812 8.09375 -6.632812 8.09375 -6.25 C 8.09375 -5.851562 8.019531 -5.472656 7.875 -5.109375 C 7.738281 -4.742188 7.546875 -4.421875 7.296875 -4.140625 C 7.046875 -3.867188 6.75 -3.660156 6.40625 -3.515625 L 8.53125 0 L 6.53125 0 L 4.609375 -3.140625 L 2.796875 -3.140625 L 2.796875 0 Z M 2.796875 -4.734375 L 5.078125 -4.734375 C 5.296875 -4.734375 5.492188 -4.800781 5.671875 -4.9375 C 5.847656 -5.070312 5.988281 -5.253906 6.09375 -5.484375 C 6.195312 -5.710938 6.25 -5.96875 6.25 -6.25 C 6.25 -6.539062 6.1875 -6.796875 6.0625 -7.015625 C 5.945312 -7.242188 5.796875 -7.425781 5.609375 -7.5625 C 5.421875 -7.695312 5.210938 -7.765625 4.984375 -7.765625 L 2.796875 -7.765625 Z M 2.796875 -4.734375 "/></g></g></g><g fill="#000000" fill-opacity="1"><g transform="translate(247.618574, 150.35278)"><g><path d="M 7.46875 -1.59375 L 7.46875 0 L 0.96875 0 L 0.96875 -9.359375 L 7.34375 -9.359375 L 7.34375 -7.765625 L 2.796875 -7.765625 L 2.796875 -5.5 L 6.734375 -5.5 L 6.734375 -4.03125 L 2.796875 -4.03125 L 2.796875 -1.59375 Z M 7.46875 -1.59375 "/></g></g></g><g fill="#000000" fill-opacity="1"><g transform="translate(256.056771, 150.35278)"><g><path d="M 0.96875 0 L 0.96875 -9.359375 L 2.796875 -9.359375 L 2.796875 0 Z M 0.96875 0 "/></g></g></g><g fill="#000000" fill-opacity="1"><g transform="translate(260.348274, 150.35278)"><g><path d="M 3.515625 -9.359375 L 5.359375 -9.359375 L 8.796875 0 L 6.921875 0 L 6.0625 -2.328125 L 2.796875 -2.328125 L 1.9375 0 L 0.0625 0 Z M 5.734375 -3.609375 L 4.4375 -7.46875 L 3.09375 -3.609375 Z M 5.734375 -3.609375 "/></g></g></g><g fill="#000000" fill-opacity="1"><g transform="translate(269.721132, 150.35278)"><g/></g></g><g fill="#000000" fill-opacity="1"><g transform="translate(273.407082, 150.35278)"><g><path d="M 0.96875 0 L 0.96875 -9.359375 L 4.375 -9.359375 C 5.394531 -9.359375 6.242188 -9.144531 6.921875 -8.71875 C 7.609375 -8.300781 8.125 -7.738281 8.46875 -7.03125 C 8.8125 -6.332031 8.984375 -5.550781 8.984375 -4.6875 C 8.984375 -3.738281 8.789062 -2.910156 8.40625 -2.203125 C 8.03125 -1.503906 7.5 -0.960938 6.8125 -0.578125 C 6.125 -0.191406 5.3125 0 4.375 0 Z M 7.15625 -4.6875 C 7.15625 -5.289062 7.046875 -5.820312 6.828125 -6.28125 C 6.609375 -6.75 6.289062 -7.113281 5.875 -7.375 C 5.457031 -7.632812 4.957031 -7.765625 4.375 -7.765625 L 2.796875 -7.765625 L 2.796875 -1.59375 L 4.375 -1.59375 C 4.96875 -1.59375 5.46875 -1.722656 5.875 -1.984375 C 6.289062 -2.253906 6.609375 -2.625 6.828125 -3.09375 C 7.046875 -3.570312 7.15625 -4.101562 7.15625 -4.6875 Z M 7.15625 -4.6875 "/></g></g></g><g fill="#000000" fill-opacity="1"><g transform="translate(283.359163, 150.35278)"><g><path d="M 7.46875 -1.59375 L 7.46875 0 L 0.96875 0 L 0.96875 -9.359375 L 7.34375 -9.359375 L 7.34375 -7.765625 L 2.796875 -7.765625 L 2.796875 -5.5 L 6.734375 -5.5 L 6.734375 -4.03125 L 2.796875 -4.03125 L 2.796875 -1.59375 Z M 7.46875 -1.59375 "/></g></g></g><g fill="#000000" fill-opacity="1"><g transform="translate(291.797343, 150.35278)"><g/></g></g><g fill="#000000" fill-opacity="1"><g transform="translate(295.483293, 150.35278)"><g><path d="M 3.515625 -9.359375 L 5.359375 -9.359375 L 8.796875 0 L 6.921875 0 L 6.0625 -2.328125 L 2.796875 -2.328125 L 1.9375 0 L 0.0625 0 Z M 5.734375 -3.609375 L 4.4375 -7.46875 L 3.09375 -3.609375 Z M 5.734375 -3.609375 "/></g></g></g><g fill="#000000" fill-opacity="1"><g transform="translate(304.856151, 150.35278)"><g><path d="M 2.796875 -6 L 2.796875 0 L 0.96875 0 L 0.96875 -9.359375 L 2.421875 -9.359375 L 7.25 -3.1875 L 7.25 -9.34375 L 9.078125 -9.34375 L 9.078125 0 L 7.5625 0 Z M 2.796875 -6 "/></g></g></g><g fill="#000000" fill-opacity="1"><g transform="translate(315.42696, 150.35278)"><g><path d="M 0.96875 0 L 0.96875 -9.359375 L 4.375 -9.359375 C 5.394531 -9.359375 6.242188 -9.144531 6.921875 -8.71875 C 7.609375 -8.300781 8.125 -7.738281 8.46875 -7.03125 C 8.8125 -6.332031 8.984375 -5.550781 8.984375 -4.6875 C 8.984375 -3.738281 8.789062 -2.910156 8.40625 -2.203125 C 8.03125 -1.503906 7.5 -0.960938 6.8125 -0.578125 C 6.125 -0.191406 5.3125 0 4.375 0 Z M 7.15625 -4.6875 C 7.15625 -5.289062 7.046875 -5.820312 6.828125 -6.28125 C 6.609375 -6.75 6.289062 -7.113281 5.875 -7.375 C 5.457031 -7.632812 4.957031 -7.765625 4.375 -7.765625 L 2.796875 -7.765625 L 2.796875 -1.59375 L 4.375 -1.59375 C 4.96875 -1.59375 5.46875 -1.722656 5.875 -1.984375 C 6.289062 -2.253906 6.609375 -2.625 6.828125 -3.09375 C 7.046875 -3.570312 7.15625 -4.101562 7.15625 -4.6875 Z M 7.15625 -4.6875 "/></g></g></g><g fill="#000000" fill-opacity="1"><g transform="translate(325.379024, 150.35278)"><g><path d="M 0.96875 0 L 0.96875 -9.359375 L 5.109375 -9.359375 C 5.535156 -9.359375 5.929688 -9.269531 6.296875 -9.09375 C 6.660156 -8.914062 6.976562 -8.675781 7.25 -8.375 C 7.519531 -8.070312 7.726562 -7.738281 7.875 -7.375 C 8.019531 -7.007812 8.09375 -6.632812 8.09375 -6.25 C 8.09375 -5.851562 8.019531 -5.472656 7.875 -5.109375 C 7.738281 -4.742188 7.546875 -4.421875 7.296875 -4.140625 C 7.046875 -3.867188 6.75 -3.660156 6.40625 -3.515625 L 8.53125 0 L 6.53125 0 L 4.609375 -3.140625 L 2.796875 -3.140625 L 2.796875 0 Z M 2.796875 -4.734375 L 5.078125 -4.734375 C 5.296875 -4.734375 5.492188 -4.800781 5.671875 -4.9375 C 5.847656 -5.070312 5.988281 -5.253906 6.09375 -5.484375 C 6.195312 -5.710938 6.25 -5.96875 6.25 -6.25 C 6.25 -6.539062 6.1875 -6.796875 6.0625 -7.015625 C 5.945312 -7.242188 5.796875 -7.425781 5.609375 -7.5625 C 5.421875 -7.695312 5.210938 -7.765625 4.984375 -7.765625 L 2.796875 -7.765625 Z M 2.796875 -4.734375 "/></g></g></g><g fill="#000000" fill-opacity="1"><g transform="translate(334.659717, 150.35278)"><g><path d="M 3.515625 -9.359375 L 5.359375 -9.359375 L 8.796875 0 L 6.921875 0 L 6.0625 -2.328125 L 2.796875 -2.328125 L 1.9375 0 L 0.0625 0 Z M 5.734375 -3.609375 L 4.4375 -7.46875 L 3.09375 -3.609375 Z M 5.734375 -3.609375 "/></g></g></g><g fill="#000000" fill-opacity="1"><g transform="translate(344.032575, 150.35278)"><g><path d="M 0.96875 0 L 0.96875 -9.359375 L 4.375 -9.359375 C 5.394531 -9.359375 6.242188 -9.144531 6.921875 -8.71875 C 7.609375 -8.300781 8.125 -7.738281 8.46875 -7.03125 C 8.8125 -6.332031 8.984375 -5.550781 8.984375 -4.6875 C 8.984375 -3.738281 8.789062 -2.910156 8.40625 -2.203125 C 8.03125 -1.503906 7.5 -0.960938 6.8125 -0.578125 C 6.125 -0.191406 5.3125 0 4.375 0 Z M 7.15625 -4.6875 C 7.15625 -5.289062 7.046875 -5.820312 6.828125 -6.28125 C 6.609375 -6.75 6.289062 -7.113281 5.875 -7.375 C 5.457031 -7.632812 4.957031 -7.765625 4.375 -7.765625 L 2.796875 -7.765625 L 2.796875 -1.59375 L 4.375 -1.59375 C 4.96875 -1.59375 5.46875 -1.722656 5.875 -1.984375 C 6.289062 -2.253906 6.609375 -2.625 6.828125 -3.09375 C 7.046875 -3.570312 7.15625 -4.101562 7.15625 -4.6875 Z M 7.15625 -4.6875 "/></g></g></g><g fill="#000000" fill-opacity="1"><g transform="translate(353.984639, 150.35278)"><g><path d="M 7.46875 -1.59375 L 7.46875 0 L 0.96875 0 L 0.96875 -9.359375 L 7.34375 -9.359375 L 7.34375 -7.765625 L 2.796875 -7.765625 L 2.796875 -5.5 L 6.734375 -5.5 L 6.734375 -4.03125 L 2.796875 -4.03125 L 2.796875 -1.59375 Z M 7.46875 -1.59375 "/></g></g></g><g fill="#000000" fill-opacity="1"><g transform="translate(362.422853, 150.35278)"><g/></g></g><g fill="#000000" fill-opacity="1"><g transform="translate(366.108803, 150.35278)"><g><path d="M 0.5 0 C 0.5 -0.394531 0.53125 -0.75 0.59375 -1.0625 C 0.65625 -1.382812 0.757812 -1.679688 0.90625 -1.953125 C 1.0625 -2.222656 1.273438 -2.476562 1.546875 -2.71875 C 1.816406 -2.957031 2.15625 -3.191406 2.5625 -3.421875 C 2.925781 -3.617188 3.242188 -3.789062 3.515625 -3.9375 C 3.785156 -4.082031 4.015625 -4.210938 4.203125 -4.328125 C 4.390625 -4.453125 4.53125 -4.578125 4.625 -4.703125 C 4.726562 -4.835938 4.78125 -4.988281 4.78125 -5.15625 C 4.78125 -5.320312 4.726562 -5.476562 4.625 -5.625 C 4.53125 -5.769531 4.394531 -5.882812 4.21875 -5.96875 C 4.050781 -6.0625 3.832031 -6.109375 3.5625 -6.109375 C 3.351562 -6.109375 3.160156 -6.082031 2.984375 -6.03125 C 2.804688 -5.976562 2.640625 -5.898438 2.484375 -5.796875 C 2.328125 -5.703125 2.179688 -5.597656 2.046875 -5.484375 C 1.921875 -5.367188 1.804688 -5.242188 1.703125 -5.109375 L 0.578125 -6.40625 C 0.703125 -6.53125 0.867188 -6.660156 1.078125 -6.796875 C 1.285156 -6.941406 1.53125 -7.078125 1.8125 -7.203125 C 2.09375 -7.335938 2.40625 -7.445312 2.75 -7.53125 C 3.101562 -7.613281 3.476562 -7.65625 3.875 -7.65625 C 4.46875 -7.65625 4.972656 -7.5625 5.390625 -7.375 C 5.816406 -7.1875 6.140625 -6.921875 6.359375 -6.578125 C 6.585938 -6.242188 6.703125 -5.851562 6.703125 -5.40625 C 6.703125 -5.101562 6.644531 -4.832031 6.53125 -4.59375 C 6.414062 -4.351562 6.269531 -4.144531 6.09375 -3.96875 C 5.914062 -3.789062 5.722656 -3.628906 5.515625 -3.484375 C 5.316406 -3.347656 5.117188 -3.226562 4.921875 -3.125 C 4.648438 -2.976562 4.40625 -2.847656 4.1875 -2.734375 C 3.96875 -2.617188 3.773438 -2.5 3.609375 -2.375 C 3.441406 -2.257812 3.296875 -2.140625 3.171875 -2.015625 C 3.046875 -1.890625 2.929688 -1.75 2.828125 -1.59375 L 6.84375 -1.59375 L 6.84375 0 Z M 0.5 0 "/></g></g></g><g fill="#000000" fill-opacity="1"><g transform="translate(374.059942, 150.35278)"><g><path d="M 5.015625 -3.109375 C 5.390625 -3.046875 5.710938 -2.90625 5.984375 -2.6875 C 6.253906 -2.476562 6.460938 -2.207031 6.609375 -1.875 C 6.765625 -1.539062 6.84375 -1.171875 6.84375 -0.765625 C 6.84375 -0.222656 6.703125 0.25 6.421875 0.65625 C 6.140625 1.0625 5.742188 1.375 5.234375 1.59375 C 4.722656 1.820312 4.117188 1.9375 3.421875 1.9375 C 2.753906 1.9375 2.160156 1.828125 1.640625 1.609375 C 1.128906 1.398438 0.707031 1.085938 0.375 0.671875 L 1.375 -0.578125 C 1.601562 -0.296875 1.875 -0.078125 2.1875 0.078125 C 2.507812 0.242188 2.90625 0.328125 3.375 0.328125 C 3.90625 0.328125 4.3125 0.21875 4.59375 0 C 4.875 -0.207031 5.015625 -0.53125 5.015625 -0.96875 C 5.015625 -1.414062 4.851562 -1.765625 4.53125 -2.015625 C 4.207031 -2.265625 3.71875 -2.390625 3.0625 -2.390625 L 2.6875 -2.390625 L 2.6875 -3.703125 L 3.09375 -3.703125 C 3.632812 -3.703125 4.054688 -3.820312 4.359375 -4.0625 C 4.660156 -4.3125 4.8125 -4.617188 4.8125 -4.984375 C 4.8125 -5.222656 4.753906 -5.421875 4.640625 -5.578125 C 4.523438 -5.742188 4.367188 -5.863281 4.171875 -5.9375 C 3.972656 -6.019531 3.742188 -6.0625 3.484375 -6.0625 C 3.085938 -6.0625 2.722656 -5.96875 2.390625 -5.78125 C 2.066406 -5.59375 1.804688 -5.332031 1.609375 -5 L 0.5 -6.25 C 0.6875 -6.519531 0.9375 -6.753906 1.25 -6.953125 C 1.570312 -7.148438 1.941406 -7.304688 2.359375 -7.421875 C 2.773438 -7.535156 3.210938 -7.59375 3.671875 -7.59375 C 4.273438 -7.59375 4.800781 -7.492188 5.25 -7.296875 C 5.695312 -7.097656 6.046875 -6.820312 6.296875 -6.46875 C 6.554688 -6.125 6.6875 -5.71875 6.6875 -5.25 C 6.6875 -4.90625 6.613281 -4.578125 6.46875 -4.265625 C 6.332031 -3.960938 6.140625 -3.707031 5.890625 -3.5 C 5.640625 -3.300781 5.347656 -3.171875 5.015625 -3.109375 Z M 5.015625 -3.109375 "/></g></g></g><g fill="#000000" fill-opacity="1"><g transform="translate(381.932073, 150.35278)"><g><path d="M 0.5 0 C 0.5 -0.394531 0.53125 -0.75 0.59375 -1.0625 C 0.65625 -1.382812 0.757812 -1.679688 0.90625 -1.953125 C 1.0625 -2.222656 1.273438 -2.476562 1.546875 -2.71875 C 1.816406 -2.957031 2.15625 -3.191406 2.5625 -3.421875 C 2.925781 -3.617188 3.242188 -3.789062 3.515625 -3.9375 C 3.785156 -4.082031 4.015625 -4.210938 4.203125 -4.328125 C 4.390625 -4.453125 4.53125 -4.578125 4.625 -4.703125 C 4.726562 -4.835938 4.78125 -4.988281 4.78125 -5.15625 C 4.78125 -5.320312 4.726562 -5.476562 4.625 -5.625 C 4.53125 -5.769531 4.394531 -5.882812 4.21875 -5.96875 C 4.050781 -6.0625 3.832031 -6.109375 3.5625 -6.109375 C 3.351562 -6.109375 3.160156 -6.082031 2.984375 -6.03125 C 2.804688 -5.976562 2.640625 -5.898438 2.484375 -5.796875 C 2.328125 -5.703125 2.179688 -5.597656 2.046875 -5.484375 C 1.921875 -5.367188 1.804688 -5.242188 1.703125 -5.109375 L 0.578125 -6.40625 C 0.703125 -6.53125 0.867188 -6.660156 1.078125 -6.796875 C 1.285156 -6.941406 1.53125 -7.078125 1.8125 -7.203125 C 2.09375 -7.335938 2.40625 -7.445312 2.75 -7.53125 C 3.101562 -7.613281 3.476562 -7.65625 3.875 -7.65625 C 4.46875 -7.65625 4.972656 -7.5625 5.390625 -7.375 C 5.816406 -7.1875 6.140625 -6.921875 6.359375 -6.578125 C 6.585938 -6.242188 6.703125 -5.851562 6.703125 -5.40625 C 6.703125 -5.101562 6.644531 -4.832031 6.53125 -4.59375 C 6.414062 -4.351562 6.269531 -4.144531 6.09375 -3.96875 C 5.914062 -3.789062 5.722656 -3.628906 5.515625 -3.484375 C 5.316406 -3.347656 5.117188 -3.226562 4.921875 -3.125 C 4.648438 -2.976562 4.40625 -2.847656 4.1875 -2.734375 C 3.96875 -2.617188 3.773438 -2.5 3.609375 -2.375 C 3.441406 -2.257812 3.296875 -2.140625 3.171875 -2.015625 C 3.046875 -1.890625 2.929688 -1.75 2.828125 -1.59375 L 6.84375 -1.59375 L 6.84375 0 Z M 0.5 0 "/></g></g></g><g fill="#212121" fill-opacity="0.302"><g transform="translate(96.266943, 61.827325)"><g><path d="M 3.03125 -30.890625 C 3.03125 -35.265625 4.84375 -38.820312 8.46875 -41.5625 C 12.09375 -44.3125 16.851562 -45.6875 22.75 -45.6875 C 28.644531 -45.6875 33.46875 -44.25 37.21875 -41.375 C 40.976562 -38.507812 42.859375 -35.507812 42.859375 -32.375 C 42.859375 -31.988281 42.71875 -31.65625 42.4375 -31.375 C 42.164062 -31.09375 41.859375 -30.953125 41.515625 -30.953125 L 28.640625 -30.953125 C 27.648438 -30.953125 26.75 -31.316406 25.9375 -32.046875 C 25.125 -32.773438 24.03125 -33.140625 22.65625 -33.140625 C 20.59375 -33.140625 19.5625 -32.539062 19.5625 -31.34375 C 19.5625 -30.695312 20.066406 -30.160156 21.078125 -29.734375 C 22.085938 -29.304688 23.960938 -28.921875 26.703125 -28.578125 C 33.097656 -27.765625 37.65625 -26.273438 40.375 -24.109375 C 43.101562 -21.941406 44.46875 -18.65625 44.46875 -14.25 C 44.46875 -9.851562 42.460938 -6.269531 38.453125 -3.5 C 34.441406 -0.738281 29.195312 0.640625 22.71875 0.640625 C 16.238281 0.640625 11.15625 -0.6875 7.46875 -3.34375 C 3.78125 -6.007812 1.9375 -9.25 1.9375 -13.0625 C 1.9375 -13.445312 2.070312 -13.78125 2.34375 -14.0625 C 2.625 -14.34375 2.957031 -14.484375 3.34375 -14.484375 L 15.578125 -14.484375 C 16.472656 -14.484375 17.46875 -14.050781 18.5625 -13.1875 C 19.65625 -12.332031 21.171875 -11.90625 23.109375 -11.90625 C 26.328125 -11.90625 27.9375 -12.503906 27.9375 -13.703125 C 27.9375 -14.472656 27.351562 -15.0625 26.1875 -15.46875 C 25.03125 -15.882812 22.84375 -16.304688 19.625 -16.734375 C 8.5625 -18.191406 3.03125 -22.910156 3.03125 -30.890625 Z M 3.03125 -30.890625 "/></g></g></g><g fill="#212121" fill-opacity="0.302"><g transform="translate(143.310693, 61.827325)"><g><path d="M 19.625 -12.546875 L 39.453125 -12.546875 C 39.921875 -12.546875 40.328125 -12.375 40.671875 -12.03125 C 41.015625 -11.6875 41.1875 -11.28125 41.1875 -10.8125 L 41.1875 -1.734375 C 41.1875 -1.265625 41.015625 -0.859375 40.671875 -0.515625 C 40.328125 -0.171875 39.921875 0 39.453125 0 L 5.921875 0 C 5.453125 0 5.046875 -0.171875 4.703125 -0.515625 C 4.359375 -0.859375 4.1875 -1.265625 4.1875 -1.734375 L 4.1875 -43.3125 C 4.1875 -43.78125 4.359375 -44.1875 4.703125 -44.53125 C 5.046875 -44.875 5.453125 -45.046875 5.921875 -45.046875 L 38.9375 -45.046875 C 39.40625 -45.046875 39.8125 -44.875 40.15625 -44.53125 C 40.5 -44.1875 40.671875 -43.78125 40.671875 -43.3125 L 40.671875 -34.234375 C 40.671875 -33.765625 40.5 -33.359375 40.15625 -33.015625 C 39.8125 -32.671875 39.40625 -32.5 38.9375 -32.5 L 19.625 -32.5 L 19.625 -28.453125 L 37.515625 -28.453125 C 37.992188 -28.453125 38.40625 -28.28125 38.75 -27.9375 C 39.09375 -27.59375 39.265625 -27.179688 39.265625 -26.703125 L 39.265625 -18.34375 C 39.265625 -17.875 39.09375 -17.46875 38.75 -17.125 C 38.40625 -16.78125 37.992188 -16.609375 37.515625 -16.609375 L 19.625 -16.609375 Z M 19.625 -12.546875 "/></g></g></g><g fill="#212121" fill-opacity="0.302"><g transform="translate(188.681203, 61.827325)"><g><path d="M 31.34375 -45.046875 L 42.984375 -45.046875 C 43.460938 -45.046875 43.875 -44.875 44.21875 -44.53125 C 44.5625 -44.1875 44.734375 -43.78125 44.734375 -43.3125 L 44.734375 -1.734375 C 44.734375 -1.265625 44.5625 -0.859375 44.21875 -0.515625 C 43.875 -0.171875 43.460938 0 42.984375 0 L 32.828125 0 C 31.710938 0 30.832031 -0.492188 30.1875 -1.484375 L 19.3125 -17.890625 L 19.3125 -1.734375 C 19.3125 -1.265625 19.140625 -0.859375 18.796875 -0.515625 C 18.453125 -0.171875 18.039062 0 17.5625 0 L 5.921875 0 C 5.453125 0 5.046875 -0.171875 4.703125 -0.515625 C 4.359375 -0.859375 4.1875 -1.265625 4.1875 -1.734375 L 4.1875 -43.3125 C 4.1875 -43.78125 4.359375 -44.1875 4.703125 -44.53125 C 5.046875 -44.875 5.453125 -45.046875 5.921875 -45.046875 L 16.09375 -45.046875 C 17.289062 -45.046875 18.171875 -44.554688 18.734375 -43.578125 L 29.609375 -25.75 L 29.609375 -43.3125 C 29.609375 -43.78125 29.78125 -44.1875 30.125 -44.53125 C 30.46875 -44.875 30.875 -45.046875 31.34375 -45.046875 Z M 31.34375 -45.046875 "/></g></g></g><g fill="#212121" fill-opacity="0.302"><g transform="translate(238.234797, 61.827325)"><g><path d="M 18.28125 -45.046875 L 32.25 -45.046875 C 33.789062 -45.046875 34.753906 -44.335938 35.140625 -42.921875 L 49.5 -1.859375 C 49.539062 -1.734375 49.5625 -1.53125 49.5625 -1.25 C 49.5625 -0.976562 49.421875 -0.703125 49.140625 -0.421875 C 48.859375 -0.140625 48.523438 0 48.140625 0 L 36.234375 0 C 34.941406 0 34.101562 -0.535156 33.71875 -1.609375 L 32.1875 -5.859375 L 18.34375 -5.859375 L 16.796875 -1.609375 C 16.410156 -0.535156 15.570312 0 14.28125 0 L 2.375 0 C 1.988281 0 1.65625 -0.140625 1.375 -0.421875 C 1.101562 -0.703125 0.96875 -0.976562 0.96875 -1.25 C 0.96875 -1.53125 0.988281 -1.734375 1.03125 -1.859375 L 15.375 -42.921875 C 15.769531 -44.335938 16.738281 -45.046875 18.28125 -45.046875 Z M 21.625 -18.40625 L 28.890625 -18.40625 L 25.234375 -30.375 Z M 21.625 -18.40625 "/></g></g></g><g fill="#212121" fill-opacity="0.302"><g transform="translate(289.397286, 61.827325)"><g><path d="M 19.046875 0 L 5.921875 0 C 5.453125 0 5.046875 -0.171875 4.703125 -0.515625 C 4.359375 -0.859375 4.1875 -1.265625 4.1875 -1.734375 L 4.1875 -43.3125 C 4.1875 -43.78125 4.359375 -44.1875 4.703125 -44.53125 C 5.046875 -44.875 5.453125 -45.046875 5.921875 -45.046875 L 19.046875 -45.046875 C 19.523438 -45.046875 19.929688 -44.875 20.265625 -44.53125 C 20.609375 -44.1875 20.78125 -43.78125 20.78125 -43.3125 L 20.78125 -1.734375 C 20.78125 -1.265625 20.609375 -0.859375 20.265625 -0.515625 C 19.929688 -0.171875 19.523438 0 19.046875 0 Z M 19.046875 0 "/></g></g></g><g fill="#212121" fill-opacity="0.502"><g transform="translate(91.13794, 61.378593)"><g><path d="M 3.03125 -30.890625 C 3.03125 -35.265625 4.84375 -38.820312 8.46875 -41.5625 C 12.09375 -44.3125 16.851562 -45.6875 22.75 -45.6875 C 28.644531 -45.6875 33.46875 -44.25 37.21875 -41.375 C 40.976562 -38.507812 42.859375 -35.507812 42.859375 -32.375 C 42.859375 -31.988281 42.71875 -31.65625 42.4375 -31.375 C 42.164062 -31.09375 41.859375 -30.953125 41.515625 -30.953125 L 28.640625 -30.953125 C 27.648438 -30.953125 26.75 -31.316406 25.9375 -32.046875 C 25.125 -32.773438 24.03125 -33.140625 22.65625 -33.140625 C 20.59375 -33.140625 19.5625 -32.539062 19.5625 -31.34375 C 19.5625 -30.695312 20.066406 -30.160156 21.078125 -29.734375 C 22.085938 -29.304688 23.960938 -28.921875 26.703125 -28.578125 C 33.097656 -27.765625 37.65625 -26.273438 40.375 -24.109375 C 43.101562 -21.941406 44.46875 -18.65625 44.46875 -14.25 C 44.46875 -9.851562 42.460938 -6.269531 38.453125 -3.5 C 34.441406 -0.738281 29.195312 0.640625 22.71875 0.640625 C 16.238281 0.640625 11.15625 -0.6875 7.46875 -3.34375 C 3.78125 -6.007812 1.9375 -9.25 1.9375 -13.0625 C 1.9375 -13.445312 2.070312 -13.78125 2.34375 -14.0625 C 2.625 -14.34375 2.957031 -14.484375 3.34375 -14.484375 L 15.578125 -14.484375 C 16.472656 -14.484375 17.46875 -14.050781 18.5625 -13.1875 C 19.65625 -12.332031 21.171875 -11.90625 23.109375 -11.90625 C 26.328125 -11.90625 27.9375 -12.503906 27.9375 -13.703125 C 27.9375 -14.472656 27.351562 -15.0625 26.1875 -15.46875 C 25.03125 -15.882812 22.84375 -16.304688 19.625 -16.734375 C 8.5625 -18.191406 3.03125 -22.910156 3.03125 -30.890625 Z M 3.03125 -30.890625 "/></g></g></g><g fill="#212121" fill-opacity="0.502"><g transform="translate(138.18169, 61.378593)"><g><path d="M 19.625 -12.546875 L 39.453125 -12.546875 C 39.921875 -12.546875 40.328125 -12.375 40.671875 -12.03125 C 41.015625 -11.6875 41.1875 -11.28125 41.1875 -10.8125 L 41.1875 -1.734375 C 41.1875 -1.265625 41.015625 -0.859375 40.671875 -0.515625 C 40.328125 -0.171875 39.921875 0 39.453125 0 L 5.921875 0 C 5.453125 0 5.046875 -0.171875 4.703125 -0.515625 C 4.359375 -0.859375 4.1875 -1.265625 4.1875 -1.734375 L 4.1875 -43.3125 C 4.1875 -43.78125 4.359375 -44.1875 4.703125 -44.53125 C 5.046875 -44.875 5.453125 -45.046875 5.921875 -45.046875 L 38.9375 -45.046875 C 39.40625 -45.046875 39.8125 -44.875 40.15625 -44.53125 C 40.5 -44.1875 40.671875 -43.78125 40.671875 -43.3125 L 40.671875 -34.234375 C 40.671875 -33.765625 40.5 -33.359375 40.15625 -33.015625 C 39.8125 -32.671875 39.40625 -32.5 38.9375 -32.5 L 19.625 -32.5 L 19.625 -28.453125 L 37.515625 -28.453125 C 37.992188 -28.453125 38.40625 -28.28125 38.75 -27.9375 C 39.09375 -27.59375 39.265625 -27.179688 39.265625 -26.703125 L 39.265625 -18.34375 C 39.265625 -17.875 39.09375 -17.46875 38.75 -17.125 C 38.40625 -16.78125 37.992188 -16.609375 37.515625 -16.609375 L 19.625 -16.609375 Z M 19.625 -12.546875 "/></g></g></g><g fill="#212121" fill-opacity="0.502"><g transform="translate(183.552199, 61.378593)"><g><path d="M 31.34375 -45.046875 L 42.984375 -45.046875 C 43.460938 -45.046875 43.875 -44.875 44.21875 -44.53125 C 44.5625 -44.1875 44.734375 -43.78125 44.734375 -43.3125 L 44.734375 -1.734375 C 44.734375 -1.265625 44.5625 -0.859375 44.21875 -0.515625 C 43.875 -0.171875 43.460938 0 42.984375 0 L 32.828125 0 C 31.710938 0 30.832031 -0.492188 30.1875 -1.484375 L 19.3125 -17.890625 L 19.3125 -1.734375 C 19.3125 -1.265625 19.140625 -0.859375 18.796875 -0.515625 C 18.453125 -0.171875 18.039062 0 17.5625 0 L 5.921875 0 C 5.453125 0 5.046875 -0.171875 4.703125 -0.515625 C 4.359375 -0.859375 4.1875 -1.265625 4.1875 -1.734375 L 4.1875 -43.3125 C 4.1875 -43.78125 4.359375 -44.1875 4.703125 -44.53125 C 5.046875 -44.875 5.453125 -45.046875 5.921875 -45.046875 L 16.09375 -45.046875 C 17.289062 -45.046875 18.171875 -44.554688 18.734375 -43.578125 L 29.609375 -25.75 L 29.609375 -43.3125 C 29.609375 -43.78125 29.78125 -44.1875 30.125 -44.53125 C 30.46875 -44.875 30.875 -45.046875 31.34375 -45.046875 Z M 31.34375 -45.046875 "/></g></g></g><g fill="#212121" fill-opacity="0.502"><g transform="translate(233.105793, 61.378593)"><g><path d="M 18.28125 -45.046875 L 32.25 -45.046875 C 33.789062 -45.046875 34.753906 -44.335938 35.140625 -42.921875 L 49.5 -1.859375 C 49.539062 -1.734375 49.5625 -1.53125 49.5625 -1.25 C 49.5625 -0.976562 49.421875 -0.703125 49.140625 -0.421875 C 48.859375 -0.140625 48.523438 0 48.140625 0 L 36.234375 0 C 34.941406 0 34.101562 -0.535156 33.71875 -1.609375 L 32.1875 -5.859375 L 18.34375 -5.859375 L 16.796875 -1.609375 C 16.410156 -0.535156 15.570312 0 14.28125 0 L 2.375 0 C 1.988281 0 1.65625 -0.140625 1.375 -0.421875 C 1.101562 -0.703125 0.96875 -0.976562 0.96875 -1.25 C 0.96875 -1.53125 0.988281 -1.734375 1.03125 -1.859375 L 15.375 -42.921875 C 15.769531 -44.335938 16.738281 -45.046875 18.28125 -45.046875 Z M 21.625 -18.40625 L 28.890625 -18.40625 L 25.234375 -30.375 Z M 21.625 -18.40625 "/></g></g></g><g fill="#212121" fill-opacity="0.502"><g transform="translate(284.268282, 61.378593)"><g><path d="M 19.046875 0 L 5.921875 0 C 5.453125 0 5.046875 -0.171875 4.703125 -0.515625 C 4.359375 -0.859375 4.1875 -1.265625 4.1875 -1.734375 L 4.1875 -43.3125 C 4.1875 -43.78125 4.359375 -44.1875 4.703125 -44.53125 C 5.046875 -44.875 5.453125 -45.046875 5.921875 -45.046875 L 19.046875 -45.046875 C 19.523438 -45.046875 19.929688 -44.875 20.265625 -44.53125 C 20.609375 -44.1875 20.78125 -43.78125 20.78125 -43.3125 L 20.78125 -1.734375 C 20.78125 -1.265625 20.609375 -0.859375 20.265625 -0.515625 C 19.929688 -0.171875 19.523438 0 19.046875 0 Z M 19.046875 0 "/></g></g></g><g fill="#212121" fill-opacity="0.302"><g transform="translate(44.493039, 120.517555)"><g><path d="M 27.640625 -28.953125 C 28.085938 -29.515625 28.3125 -30.179688 28.3125 -30.953125 C 28.3125 -31.722656 28.085938 -32.421875 27.640625 -33.046875 C 27.191406 -33.671875 26.535156 -33.984375 25.671875 -33.984375 L 20.265625 -33.984375 L 20.265625 -28.125 L 25.671875 -28.125 C 26.535156 -28.125 27.191406 -28.398438 27.640625 -28.953125 Z M 20.265625 -17.375 L 20.265625 -11.0625 L 26.265625 -11.0625 C 27.242188 -11.0625 27.976562 -11.394531 28.46875 -12.0625 C 28.96875 -12.726562 29.21875 -13.46875 29.21875 -14.28125 L 29.21875 -14.359375 C 29.21875 -15.171875 28.945312 -15.875 28.40625 -16.46875 C 27.875 -17.070312 27.160156 -17.375 26.265625 -17.375 Z M 27.9375 0 L 5.921875 0 C 5.453125 0 5.046875 -0.171875 4.703125 -0.515625 C 4.359375 -0.859375 4.1875 -1.265625 4.1875 -1.734375 L 4.1875 -43.3125 C 4.1875 -43.78125 4.359375 -44.1875 4.703125 -44.53125 C 5.046875 -44.875 5.453125 -45.046875 5.921875 -45.046875 L 27.28125 -45.046875 C 33.375 -45.046875 37.867188 -43.941406 40.765625 -41.734375 C 43.660156 -39.523438 45.109375 -36.191406 45.109375 -31.734375 L 45.109375 -31.53125 C 45.109375 -29.6875 44.570312 -28.046875 43.5 -26.609375 C 42.425781 -25.171875 41.25 -24.128906 39.96875 -23.484375 C 41.6875 -22.804688 43.132812 -21.597656 44.3125 -19.859375 C 45.488281 -18.117188 46.078125 -16.21875 46.078125 -14.15625 C 46.078125 -4.71875 40.03125 0 27.9375 0 Z M 27.9375 0 "/></g></g></g><g fill="#212121" fill-opacity="0.302"><g transform="translate(93.789219, 120.517555)"><g><path d="M 45.625 -2.125 C 45.757812 -1.863281 45.828125 -1.582031 45.828125 -1.28125 C 45.828125 -0.988281 45.6875 -0.703125 45.40625 -0.421875 C 45.125 -0.140625 44.789062 0 44.40625 0 L 31.21875 0 C 29.882812 0 28.960938 -0.578125 28.453125 -1.734375 L 22.90625 -14.03125 L 20.265625 -14.03125 L 20.265625 -1.734375 C 20.265625 -1.265625 20.09375 -0.859375 19.75 -0.515625 C 19.414062 -0.171875 19.007812 0 18.53125 0 L 5.921875 0 C 5.453125 0 5.046875 -0.171875 4.703125 -0.515625 C 4.359375 -0.859375 4.1875 -1.265625 4.1875 -1.734375 L 4.1875 -43.3125 C 4.1875 -43.78125 4.359375 -44.1875 4.703125 -44.53125 C 5.046875 -44.875 5.453125 -45.046875 5.921875 -45.046875 L 24.96875 -45.046875 C 31.144531 -45.046875 35.972656 -43.660156 39.453125 -40.890625 C 42.929688 -38.128906 44.671875 -34.160156 44.671875 -28.984375 C 44.671875 -23.816406 42.351562 -19.753906 37.71875 -16.796875 Z M 20.265625 -33.078125 L 20.265625 -26.265625 L 24.96875 -26.265625 C 25.914062 -26.265625 26.644531 -26.570312 27.15625 -27.1875 C 27.675781 -27.8125 27.9375 -28.59375 27.9375 -29.53125 C 27.9375 -30.476562 27.6875 -31.304688 27.1875 -32.015625 C 26.695312 -32.722656 25.957031 -33.078125 24.96875 -33.078125 Z M 20.265625 -33.078125 "/></g></g></g><g fill="#212121" fill-opacity="0.302"><g transform="translate(142.184426, 120.517555)"><g><path d="M 18.28125 -45.046875 L 32.25 -45.046875 C 33.789062 -45.046875 34.753906 -44.335938 35.140625 -42.921875 L 49.5 -1.859375 C 49.539062 -1.734375 49.5625 -1.53125 49.5625 -1.25 C 49.5625 -0.976562 49.421875 -0.703125 49.140625 -0.421875 C 48.859375 -0.140625 48.523438 0 48.140625 0 L 36.234375 0 C 34.941406 0 34.101562 -0.535156 33.71875 -1.609375 L 32.1875 -5.859375 L 18.34375 -5.859375 L 16.796875 -1.609375 C 16.410156 -0.535156 15.570312 0 14.28125 0 L 2.375 0 C 1.988281 0 1.65625 -0.140625 1.375 -0.421875 C 1.101562 -0.703125 0.96875 -0.976562 0.96875 -1.25 C 0.96875 -1.53125 0.988281 -1.734375 1.03125 -1.859375 L 15.375 -42.921875 C 15.769531 -44.335938 16.738281 -45.046875 18.28125 -45.046875 Z M 21.625 -18.40625 L 28.890625 -18.40625 L 25.234375 -30.375 Z M 28.125 -59.34375 L 40.796875 -59.34375 C 41.617188 -59.34375 42.03125 -58.910156 42.03125 -58.046875 C 42.03125 -57.753906 41.921875 -57.5 41.703125 -57.28125 L 31.53125 -48.90625 C 31.0625 -48.476562 30.179688 -48.265625 28.890625 -48.265625 L 19.890625 -48.265625 C 19.203125 -48.265625 18.859375 -48.609375 18.859375 -49.296875 C 18.859375 -49.640625 18.960938 -49.921875 19.171875 -50.140625 L 25.75 -58.109375 C 26.476562 -58.929688 27.269531 -59.34375 28.125 -59.34375 Z M 28.125 -59.34375 "/></g></g></g><g fill="#212121" fill-opacity="0.302"><g transform="translate(193.346923, 120.517555)"><g><path d="M 3.03125 -30.890625 C 3.03125 -35.265625 4.84375 -38.820312 8.46875 -41.5625 C 12.09375 -44.3125 16.851562 -45.6875 22.75 -45.6875 C 28.644531 -45.6875 33.46875 -44.25 37.21875 -41.375 C 40.976562 -38.507812 42.859375 -35.507812 42.859375 -32.375 C 42.859375 -31.988281 42.71875 -31.65625 42.4375 -31.375 C 42.164062 -31.09375 41.859375 -30.953125 41.515625 -30.953125 L 28.640625 -30.953125 C 27.648438 -30.953125 26.75 -31.316406 25.9375 -32.046875 C 25.125 -32.773438 24.03125 -33.140625 22.65625 -33.140625 C 20.59375 -33.140625 19.5625 -32.539062 19.5625 -31.34375 C 19.5625 -30.695312 20.066406 -30.160156 21.078125 -29.734375 C 22.085938 -29.304688 23.960938 -28.921875 26.703125 -28.578125 C 33.097656 -27.765625 37.65625 -26.273438 40.375 -24.109375 C 43.101562 -21.941406 44.46875 -18.65625 44.46875 -14.25 C 44.46875 -9.851562 42.460938 -6.269531 38.453125 -3.5 C 34.441406 -0.738281 29.195312 0.640625 22.71875 0.640625 C 16.238281 0.640625 11.15625 -0.6875 7.46875 -3.34375 C 3.78125 -6.007812 1.9375 -9.25 1.9375 -13.0625 C 1.9375 -13.445312 2.070312 -13.78125 2.34375 -14.0625 C 2.625 -14.34375 2.957031 -14.484375 3.34375 -14.484375 L 15.578125 -14.484375 C 16.472656 -14.484375 17.46875 -14.050781 18.5625 -13.1875 C 19.65625 -12.332031 21.171875 -11.90625 23.109375 -11.90625 C 26.328125 -11.90625 27.9375 -12.503906 27.9375 -13.703125 C 27.9375 -14.472656 27.351562 -15.0625 26.1875 -15.46875 C 25.03125 -15.882812 22.84375 -16.304688 19.625 -16.734375 C 8.5625 -18.191406 3.03125 -22.910156 3.03125 -30.890625 Z M 3.03125 -30.890625 "/></g></g></g><g fill="#212121" fill-opacity="0.302"><g transform="translate(240.390657, 120.517555)"><g><path d="M 4.3125 -28 L 27.03125 -28 C 27.5 -28 27.90625 -27.828125 28.25 -27.484375 C 28.59375 -27.140625 28.765625 -26.734375 28.765625 -26.265625 L 28.765625 -17.125 C 28.765625 -16.644531 28.59375 -16.234375 28.25 -15.890625 C 27.90625 -15.546875 27.5 -15.375 27.03125 -15.375 L 4.3125 -15.375 C 3.84375 -15.375 3.4375 -15.546875 3.09375 -15.890625 C 2.75 -16.234375 2.578125 -16.644531 2.578125 -17.125 L 2.578125 -26.265625 C 2.578125 -26.734375 2.75 -27.140625 3.09375 -27.484375 C 3.4375 -27.828125 3.84375 -28 4.3125 -28 Z M 4.3125 -28 "/></g></g></g><g fill="#212121" fill-opacity="0.302"><g transform="translate(272.375276, 120.517555)"><g><path d="M 3.03125 -30.890625 C 3.03125 -35.265625 4.84375 -38.820312 8.46875 -41.5625 C 12.09375 -44.3125 16.851562 -45.6875 22.75 -45.6875 C 28.644531 -45.6875 33.46875 -44.25 37.21875 -41.375 C 40.976562 -38.507812 42.859375 -35.507812 42.859375 -32.375 C 42.859375 -31.988281 42.71875 -31.65625 42.4375 -31.375 C 42.164062 -31.09375 41.859375 -30.953125 41.515625 -30.953125 L 28.640625 -30.953125 C 27.648438 -30.953125 26.75 -31.316406 25.9375 -32.046875 C 25.125 -32.773438 24.03125 -33.140625 22.65625 -33.140625 C 20.59375 -33.140625 19.5625 -32.539062 19.5625 -31.34375 C 19.5625 -30.695312 20.066406 -30.160156 21.078125 -29.734375 C 22.085938 -29.304688 23.960938 -28.921875 26.703125 -28.578125 C 33.097656 -27.765625 37.65625 -26.273438 40.375 -24.109375 C 43.101562 -21.941406 44.46875 -18.65625 44.46875 -14.25 C 44.46875 -9.851562 42.460938 -6.269531 38.453125 -3.5 C 34.441406 -0.738281 29.195312 0.640625 22.71875 0.640625 C 16.238281 0.640625 11.15625 -0.6875 7.46875 -3.34375 C 3.78125 -6.007812 1.9375 -9.25 1.9375 -13.0625 C 1.9375 -13.445312 2.070312 -13.78125 2.34375 -14.0625 C 2.625 -14.34375 2.957031 -14.484375 3.34375 -14.484375 L 15.578125 -14.484375 C 16.472656 -14.484375 17.46875 -14.050781 18.5625 -13.1875 C 19.65625 -12.332031 21.171875 -11.90625 23.109375 -11.90625 C 26.328125 -11.90625 27.9375 -12.503906 27.9375 -13.703125 C 27.9375 -14.472656 27.351562 -15.0625 26.1875 -15.46875 C 25.03125 -15.882812 22.84375 -16.304688 19.625 -16.734375 C 8.5625 -18.191406 3.03125 -22.910156 3.03125 -30.890625 Z M 3.03125 -30.890625 "/></g></g></g><g fill="#212121" fill-opacity="0.302"><g transform="translate(319.419026, 120.517555)"><g><path d="M 5.921875 -45.046875 L 25.09375 -45.046875 C 31.28125 -45.046875 36.109375 -43.71875 39.578125 -41.0625 C 43.054688 -38.40625 44.796875 -34.476562 44.796875 -29.28125 C 44.796875 -24.09375 43.066406 -20.253906 39.609375 -17.765625 C 36.160156 -15.273438 31.320312 -14.03125 25.09375 -14.03125 L 20.921875 -14.03125 L 20.921875 -1.734375 C 20.921875 -1.265625 20.75 -0.859375 20.40625 -0.515625 C 20.0625 -0.171875 19.648438 0 19.171875 0 L 5.921875 0 C 5.453125 0 5.046875 -0.171875 4.703125 -0.515625 C 4.359375 -0.859375 4.1875 -1.265625 4.1875 -1.734375 L 4.1875 -43.3125 C 4.1875 -43.78125 4.359375 -44.1875 4.703125 -44.53125 C 5.046875 -44.875 5.453125 -45.046875 5.921875 -45.046875 Z M 20.59375 -33.078125 L 20.59375 -25.9375 L 25.09375 -25.9375 C 25.875 -25.9375 26.5625 -26.222656 27.15625 -26.796875 C 27.757812 -27.378906 28.0625 -28.207031 28.0625 -29.28125 C 28.0625 -30.351562 27.820312 -31.253906 27.34375 -31.984375 C 26.875 -32.710938 26.125 -33.078125 25.09375 -33.078125 Z M 20.59375 -33.078125 "/></g></g></g><g fill="#212121" fill-opacity="0.502"><g transform="translate(39.364035, 120.068822)"><g><path d="M 27.640625 -28.953125 C 28.085938 -29.515625 28.3125 -30.179688 28.3125 -30.953125 C 28.3125 -31.722656 28.085938 -32.421875 27.640625 -33.046875 C 27.191406 -33.671875 26.535156 -33.984375 25.671875 -33.984375 L 20.265625 -33.984375 L 20.265625 -28.125 L 25.671875 -28.125 C 26.535156 -28.125 27.191406 -28.398438 27.640625 -28.953125 Z M 20.265625 -17.375 L 20.265625 -11.0625 L 26.265625 -11.0625 C 27.242188 -11.0625 27.976562 -11.394531 28.46875 -12.0625 C 28.96875 -12.726562 29.21875 -13.46875 29.21875 -14.28125 L 29.21875 -14.359375 C 29.21875 -15.171875 28.945312 -15.875 28.40625 -16.46875 C 27.875 -17.070312 27.160156 -17.375 26.265625 -17.375 Z M 27.9375 0 L 5.921875 0 C 5.453125 0 5.046875 -0.171875 4.703125 -0.515625 C 4.359375 -0.859375 4.1875 -1.265625 4.1875 -1.734375 L 4.1875 -43.3125 C 4.1875 -43.78125 4.359375 -44.1875 4.703125 -44.53125 C 5.046875 -44.875 5.453125 -45.046875 5.921875 -45.046875 L 27.28125 -45.046875 C 33.375 -45.046875 37.867188 -43.941406 40.765625 -41.734375 C 43.660156 -39.523438 45.109375 -36.191406 45.109375 -31.734375 L 45.109375 -31.53125 C 45.109375 -29.6875 44.570312 -28.046875 43.5 -26.609375 C 42.425781 -25.171875 41.25 -24.128906 39.96875 -23.484375 C 41.6875 -22.804688 43.132812 -21.597656 44.3125 -19.859375 C 45.488281 -18.117188 46.078125 -16.21875 46.078125 -14.15625 C 46.078125 -4.71875 40.03125 0 27.9375 0 Z M 27.9375 0 "/></g></g></g><g fill="#212121" fill-opacity="0.502"><g transform="translate(88.660215, 120.068822)"><g><path d="M 45.625 -2.125 C 45.757812 -1.863281 45.828125 -1.582031 45.828125 -1.28125 C 45.828125 -0.988281 45.6875 -0.703125 45.40625 -0.421875 C 45.125 -0.140625 44.789062 0 44.40625 0 L 31.21875 0 C 29.882812 0 28.960938 -0.578125 28.453125 -1.734375 L 22.90625 -14.03125 L 20.265625 -14.03125 L 20.265625 -1.734375 C 20.265625 -1.265625 20.09375 -0.859375 19.75 -0.515625 C 19.414062 -0.171875 19.007812 0 18.53125 0 L 5.921875 0 C 5.453125 0 5.046875 -0.171875 4.703125 -0.515625 C 4.359375 -0.859375 4.1875 -1.265625 4.1875 -1.734375 L 4.1875 -43.3125 C 4.1875 -43.78125 4.359375 -44.1875 4.703125 -44.53125 C 5.046875 -44.875 5.453125 -45.046875 5.921875 -45.046875 L 24.96875 -45.046875 C 31.144531 -45.046875 35.972656 -43.660156 39.453125 -40.890625 C 42.929688 -38.128906 44.671875 -34.160156 44.671875 -28.984375 C 44.671875 -23.816406 42.351562 -19.753906 37.71875 -16.796875 Z M 20.265625 -33.078125 L 20.265625 -26.265625 L 24.96875 -26.265625 C 25.914062 -26.265625 26.644531 -26.570312 27.15625 -27.1875 C 27.675781 -27.8125 27.9375 -28.59375 27.9375 -29.53125 C 27.9375 -30.476562 27.6875 -31.304688 27.1875 -32.015625 C 26.695312 -32.722656 25.957031 -33.078125 24.96875 -33.078125 Z M 20.265625 -33.078125 "/></g></g></g><g fill="#212121" fill-opacity="0.502"><g transform="translate(137.055422, 120.068822)"><g><path d="M 18.28125 -45.046875 L 32.25 -45.046875 C 33.789062 -45.046875 34.753906 -44.335938 35.140625 -42.921875 L 49.5 -1.859375 C 49.539062 -1.734375 49.5625 -1.53125 49.5625 -1.25 C 49.5625 -0.976562 49.421875 -0.703125 49.140625 -0.421875 C 48.859375 -0.140625 48.523438 0 48.140625 0 L 36.234375 0 C 34.941406 0 34.101562 -0.535156 33.71875 -1.609375 L 32.1875 -5.859375 L 18.34375 -5.859375 L 16.796875 -1.609375 C 16.410156 -0.535156 15.570312 0 14.28125 0 L 2.375 0 C 1.988281 0 1.65625 -0.140625 1.375 -0.421875 C 1.101562 -0.703125 0.96875 -0.976562 0.96875 -1.25 C 0.96875 -1.53125 0.988281 -1.734375 1.03125 -1.859375 L 15.375 -42.921875 C 15.769531 -44.335938 16.738281 -45.046875 18.28125 -45.046875 Z M 21.625 -18.40625 L 28.890625 -18.40625 L 25.234375 -30.375 Z M 28.125 -59.34375 L 40.796875 -59.34375 C 41.617188 -59.34375 42.03125 -58.910156 42.03125 -58.046875 C 42.03125 -57.753906 41.921875 -57.5 41.703125 -57.28125 L 31.53125 -48.90625 C 31.0625 -48.476562 30.179688 -48.265625 28.890625 -48.265625 L 19.890625 -48.265625 C 19.203125 -48.265625 18.859375 -48.609375 18.859375 -49.296875 C 18.859375 -49.640625 18.960938 -49.921875 19.171875 -50.140625 L 25.75 -58.109375 C 26.476562 -58.929688 27.269531 -59.34375 28.125 -59.34375 Z M 28.125 -59.34375 "/></g></g></g><g fill="#212121" fill-opacity="0.502"><g transform="translate(188.217919, 120.068822)"><g><path d="M 3.03125 -30.890625 C 3.03125 -35.265625 4.84375 -38.820312 8.46875 -41.5625 C 12.09375 -44.3125 16.851562 -45.6875 22.75 -45.6875 C 28.644531 -45.6875 33.46875 -44.25 37.21875 -41.375 C 40.976562 -38.507812 42.859375 -35.507812 42.859375 -32.375 C 42.859375 -31.988281 42.71875 -31.65625 42.4375 -31.375 C 42.164062 -31.09375 41.859375 -30.953125 41.515625 -30.953125 L 28.640625 -30.953125 C 27.648438 -30.953125 26.75 -31.316406 25.9375 -32.046875 C 25.125 -32.773438 24.03125 -33.140625 22.65625 -33.140625 C 20.59375 -33.140625 19.5625 -32.539062 19.5625 -31.34375 C 19.5625 -30.695312 20.066406 -30.160156 21.078125 -29.734375 C 22.085938 -29.304688 23.960938 -28.921875 26.703125 -28.578125 C 33.097656 -27.765625 37.65625 -26.273438 40.375 -24.109375 C 43.101562 -21.941406 44.46875 -18.65625 44.46875 -14.25 C 44.46875 -9.851562 42.460938 -6.269531 38.453125 -3.5 C 34.441406 -0.738281 29.195312 0.640625 22.71875 0.640625 C 16.238281 0.640625 11.15625 -0.6875 7.46875 -3.34375 C 3.78125 -6.007812 1.9375 -9.25 1.9375 -13.0625 C 1.9375 -13.445312 2.070312 -13.78125 2.34375 -14.0625 C 2.625 -14.34375 2.957031 -14.484375 3.34375 -14.484375 L 15.578125 -14.484375 C 16.472656 -14.484375 17.46875 -14.050781 18.5625 -13.1875 C 19.65625 -12.332031 21.171875 -11.90625 23.109375 -11.90625 C 26.328125 -11.90625 27.9375 -12.503906 27.9375 -13.703125 C 27.9375 -14.472656 27.351562 -15.0625 26.1875 -15.46875 C 25.03125 -15.882812 22.84375 -16.304688 19.625 -16.734375 C 8.5625 -18.191406 3.03125 -22.910156 3.03125 -30.890625 Z M 3.03125 -30.890625 "/></g></g></g><g fill="#212121" fill-opacity="0.502"><g transform="translate(235.261653, 120.068822)"><g><path d="M 4.3125 -28 L 27.03125 -28 C 27.5 -28 27.90625 -27.828125 28.25 -27.484375 C 28.59375 -27.140625 28.765625 -26.734375 28.765625 -26.265625 L 28.765625 -17.125 C 28.765625 -16.644531 28.59375 -16.234375 28.25 -15.890625 C 27.90625 -15.546875 27.5 -15.375 27.03125 -15.375 L 4.3125 -15.375 C 3.84375 -15.375 3.4375 -15.546875 3.09375 -15.890625 C 2.75 -16.234375 2.578125 -16.644531 2.578125 -17.125 L 2.578125 -26.265625 C 2.578125 -26.734375 2.75 -27.140625 3.09375 -27.484375 C 3.4375 -27.828125 3.84375 -28 4.3125 -28 Z M 4.3125 -28 "/></g></g></g><g fill="#212121" fill-opacity="0.502"><g transform="translate(267.246273, 120.068822)"><g><path d="M 3.03125 -30.890625 C 3.03125 -35.265625 4.84375 -38.820312 8.46875 -41.5625 C 12.09375 -44.3125 16.851562 -45.6875 22.75 -45.6875 C 28.644531 -45.6875 33.46875 -44.25 37.21875 -41.375 C 40.976562 -38.507812 42.859375 -35.507812 42.859375 -32.375 C 42.859375 -31.988281 42.71875 -31.65625 42.4375 -31.375 C 42.164062 -31.09375 41.859375 -30.953125 41.515625 -30.953125 L 28.640625 -30.953125 C 27.648438 -30.953125 26.75 -31.316406 25.9375 -32.046875 C 25.125 -32.773438 24.03125 -33.140625 22.65625 -33.140625 C 20.59375 -33.140625 19.5625 -32.539062 19.5625 -31.34375 C 19.5625 -30.695312 20.066406 -30.160156 21.078125 -29.734375 C 22.085938 -29.304688 23.960938 -28.921875 26.703125 -28.578125 C 33.097656 -27.765625 37.65625 -26.273438 40.375 -24.109375 C 43.101562 -21.941406 44.46875 -18.65625 44.46875 -14.25 C 44.46875 -9.851562 42.460938 -6.269531 38.453125 -3.5 C 34.441406 -0.738281 29.195312 0.640625 22.71875 0.640625 C 16.238281 0.640625 11.15625 -0.6875 7.46875 -3.34375 C 3.78125 -6.007812 1.9375 -9.25 1.9375 -13.0625 C 1.9375 -13.445312 2.070312 -13.78125 2.34375 -14.0625 C 2.625 -14.34375 2.957031 -14.484375 3.34375 -14.484375 L 15.578125 -14.484375 C 16.472656 -14.484375 17.46875 -14.050781 18.5625 -13.1875 C 19.65625 -12.332031 21.171875 -11.90625 23.109375 -11.90625 C 26.328125 -11.90625 27.9375 -12.503906 27.9375 -13.703125 C 27.9375 -14.472656 27.351562 -15.0625 26.1875 -15.46875 C 25.03125 -15.882812 22.84375 -16.304688 19.625 -16.734375 C 8.5625 -18.191406 3.03125 -22.910156 3.03125 -30.890625 Z M 3.03125 -30.890625 "/></g></g></g><g fill="#212121" fill-opacity="0.502"><g transform="translate(314.290022, 120.068822)"><g><path d="M 5.921875 -45.046875 L 25.09375 -45.046875 C 31.28125 -45.046875 36.109375 -43.71875 39.578125 -41.0625 C 43.054688 -38.40625 44.796875 -34.476562 44.796875 -29.28125 C 44.796875 -24.09375 43.066406 -20.253906 39.609375 -17.765625 C 36.160156 -15.273438 31.320312 -14.03125 25.09375 -14.03125 L 20.921875 -14.03125 L 20.921875 -1.734375 C 20.921875 -1.265625 20.75 -0.859375 20.40625 -0.515625 C 20.0625 -0.171875 19.648438 0 19.171875 0 L 5.921875 0 C 5.453125 0 5.046875 -0.171875 4.703125 -0.515625 C 4.359375 -0.859375 4.1875 -1.265625 4.1875 -1.734375 L 4.1875 -43.3125 C 4.1875 -43.78125 4.359375 -44.1875 4.703125 -44.53125 C 5.046875 -44.875 5.453125 -45.046875 5.921875 -45.046875 Z M 20.59375 -33.078125 L 20.59375 -25.9375 L 25.09375 -25.9375 C 25.875 -25.9375 26.5625 -26.222656 27.15625 -26.796875 C 27.757812 -27.378906 28.0625 -28.207031 28.0625 -29.28125 C 28.0625 -30.351562 27.820312 -31.253906 27.34375 -31.984375 C 26.875 -32.710938 26.125 -33.078125 25.09375 -33.078125 Z M 20.59375 -33.078125 "/></g></g></g><g fill="#000000" fill-opacity="1"><g transform="translate(86.008878, 60.92986)"><g><path d="M 3.03125 -30.890625 C 3.03125 -35.265625 4.84375 -38.820312 8.46875 -41.5625 C 12.09375 -44.3125 16.851562 -45.6875 22.75 -45.6875 C 28.644531 -45.6875 33.46875 -44.25 37.21875 -41.375 C 40.976562 -38.507812 42.859375 -35.507812 42.859375 -32.375 C 42.859375 -31.988281 42.71875 -31.65625 42.4375 -31.375 C 42.164062 -31.09375 41.859375 -30.953125 41.515625 -30.953125 L 28.640625 -30.953125 C 27.648438 -30.953125 26.75 -31.316406 25.9375 -32.046875 C 25.125 -32.773438 24.03125 -33.140625 22.65625 -33.140625 C 20.59375 -33.140625 19.5625 -32.539062 19.5625 -31.34375 C 19.5625 -30.695312 20.066406 -30.160156 21.078125 -29.734375 C 22.085938 -29.304688 23.960938 -28.921875 26.703125 -28.578125 C 33.097656 -27.765625 37.65625 -26.273438 40.375 -24.109375 C 43.101562 -21.941406 44.46875 -18.65625 44.46875 -14.25 C 44.46875 -9.851562 42.460938 -6.269531 38.453125 -3.5 C 34.441406 -0.738281 29.195312 0.640625 22.71875 0.640625 C 16.238281 0.640625 11.15625 -0.6875 7.46875 -3.34375 C 3.78125 -6.007812 1.9375 -9.25 1.9375 -13.0625 C 1.9375 -13.445312 2.070312 -13.78125 2.34375 -14.0625 C 2.625 -14.34375 2.957031 -14.484375 3.34375 -14.484375 L 15.578125 -14.484375 C 16.472656 -14.484375 17.46875 -14.050781 18.5625 -13.1875 C 19.65625 -12.332031 21.171875 -11.90625 23.109375 -11.90625 C 26.328125 -11.90625 27.9375 -12.503906 27.9375 -13.703125 C 27.9375 -14.472656 27.351562 -15.0625 26.1875 -15.46875 C 25.03125 -15.882812 22.84375 -16.304688 19.625 -16.734375 C 8.5625 -18.191406 3.03125 -22.910156 3.03125 -30.890625 Z M 3.03125 -30.890625 "/></g></g></g><g fill="#000000" fill-opacity="1"><g transform="translate(133.052628, 60.92986)"><g><path d="M 19.625 -12.546875 L 39.453125 -12.546875 C 39.921875 -12.546875 40.328125 -12.375 40.671875 -12.03125 C 41.015625 -11.6875 41.1875 -11.28125 41.1875 -10.8125 L 41.1875 -1.734375 C 41.1875 -1.265625 41.015625 -0.859375 40.671875 -0.515625 C 40.328125 -0.171875 39.921875 0 39.453125 0 L 5.921875 0 C 5.453125 0 5.046875 -0.171875 4.703125 -0.515625 C 4.359375 -0.859375 4.1875 -1.265625 4.1875 -1.734375 L 4.1875 -43.3125 C 4.1875 -43.78125 4.359375 -44.1875 4.703125 -44.53125 C 5.046875 -44.875 5.453125 -45.046875 5.921875 -45.046875 L 38.9375 -45.046875 C 39.40625 -45.046875 39.8125 -44.875 40.15625 -44.53125 C 40.5 -44.1875 40.671875 -43.78125 40.671875 -43.3125 L 40.671875 -34.234375 C 40.671875 -33.765625 40.5 -33.359375 40.15625 -33.015625 C 39.8125 -32.671875 39.40625 -32.5 38.9375 -32.5 L 19.625 -32.5 L 19.625 -28.453125 L 37.515625 -28.453125 C 37.992188 -28.453125 38.40625 -28.28125 38.75 -27.9375 C 39.09375 -27.59375 39.265625 -27.179688 39.265625 -26.703125 L 39.265625 -18.34375 C 39.265625 -17.875 39.09375 -17.46875 38.75 -17.125 C 38.40625 -16.78125 37.992188 -16.609375 37.515625 -16.609375 L 19.625 -16.609375 Z M 19.625 -12.546875 "/></g></g></g><g fill="#000000" fill-opacity="1"><g transform="translate(178.423137, 60.92986)"><g><path d="M 31.34375 -45.046875 L 42.984375 -45.046875 C 43.460938 -45.046875 43.875 -44.875 44.21875 -44.53125 C 44.5625 -44.1875 44.734375 -43.78125 44.734375 -43.3125 L 44.734375 -1.734375 C 44.734375 -1.265625 44.5625 -0.859375 44.21875 -0.515625 C 43.875 -0.171875 43.460938 0 42.984375 0 L 32.828125 0 C 31.710938 0 30.832031 -0.492188 30.1875 -1.484375 L 19.3125 -17.890625 L 19.3125 -1.734375 C 19.3125 -1.265625 19.140625 -0.859375 18.796875 -0.515625 C 18.453125 -0.171875 18.039062 0 17.5625 0 L 5.921875 0 C 5.453125 0 5.046875 -0.171875 4.703125 -0.515625 C 4.359375 -0.859375 4.1875 -1.265625 4.1875 -1.734375 L 4.1875 -43.3125 C 4.1875 -43.78125 4.359375 -44.1875 4.703125 -44.53125 C 5.046875 -44.875 5.453125 -45.046875 5.921875 -45.046875 L 16.09375 -45.046875 C 17.289062 -45.046875 18.171875 -44.554688 18.734375 -43.578125 L 29.609375 -25.75 L 29.609375 -43.3125 C 29.609375 -43.78125 29.78125 -44.1875 30.125 -44.53125 C 30.46875 -44.875 30.875 -45.046875 31.34375 -45.046875 Z M 31.34375 -45.046875 "/></g></g></g><g fill="#000000" fill-opacity="1"><g transform="translate(227.976731, 60.92986)"><g><path d="M 18.28125 -45.046875 L 32.25 -45.046875 C 33.789062 -45.046875 34.753906 -44.335938 35.140625 -42.921875 L 49.5 -1.859375 C 49.539062 -1.734375 49.5625 -1.53125 49.5625 -1.25 C 49.5625 -0.976562 49.421875 -0.703125 49.140625 -0.421875 C 48.859375 -0.140625 48.523438 0 48.140625 0 L 36.234375 0 C 34.941406 0 34.101562 -0.535156 33.71875 -1.609375 L 32.1875 -5.859375 L 18.34375 -5.859375 L 16.796875 -1.609375 C 16.410156 -0.535156 15.570312 0 14.28125 0 L 2.375 0 C 1.988281 0 1.65625 -0.140625 1.375 -0.421875 C 1.101562 -0.703125 0.96875 -0.976562 0.96875 -1.25 C 0.96875 -1.53125 0.988281 -1.734375 1.03125 -1.859375 L 15.375 -42.921875 C 15.769531 -44.335938 16.738281 -45.046875 18.28125 -45.046875 Z M 21.625 -18.40625 L 28.890625 -18.40625 L 25.234375 -30.375 Z M 21.625 -18.40625 "/></g></g></g><g fill="#000000" fill-opacity="1"><g transform="translate(279.13922, 60.92986)"><g><path d="M 19.046875 0 L 5.921875 0 C 5.453125 0 5.046875 -0.171875 4.703125 -0.515625 C 4.359375 -0.859375 4.1875 -1.265625 4.1875 -1.734375 L 4.1875 -43.3125 C 4.1875 -43.78125 4.359375 -44.1875 4.703125 -44.53125 C 5.046875 -44.875 5.453125 -45.046875 5.921875 -45.046875 L 19.046875 -45.046875 C 19.523438 -45.046875 19.929688 -44.875 20.265625 -44.53125 C 20.609375 -44.1875 20.78125 -43.78125 20.78125 -43.3125 L 20.78125 -1.734375 C 20.78125 -1.265625 20.609375 -0.859375 20.265625 -0.515625 C 19.929688 -0.171875 19.523438 0 19.046875 0 Z M 19.046875 0 "/></g></g></g><g fill="#000000" fill-opacity="1"><g transform="translate(34.234973, 119.620089)"><g><path d="M 27.640625 -28.953125 C 28.085938 -29.515625 28.3125 -30.179688 28.3125 -30.953125 C 28.3125 -31.722656 28.085938 -32.421875 27.640625 -33.046875 C 27.191406 -33.671875 26.535156 -33.984375 25.671875 -33.984375 L 20.265625 -33.984375 L 20.265625 -28.125 L 25.671875 -28.125 C 26.535156 -28.125 27.191406 -28.398438 27.640625 -28.953125 Z M 20.265625 -17.375 L 20.265625 -11.0625 L 26.265625 -11.0625 C 27.242188 -11.0625 27.976562 -11.394531 28.46875 -12.0625 C 28.96875 -12.726562 29.21875 -13.46875 29.21875 -14.28125 L 29.21875 -14.359375 C 29.21875 -15.171875 28.945312 -15.875 28.40625 -16.46875 C 27.875 -17.070312 27.160156 -17.375 26.265625 -17.375 Z M 27.9375 0 L 5.921875 0 C 5.453125 0 5.046875 -0.171875 4.703125 -0.515625 C 4.359375 -0.859375 4.1875 -1.265625 4.1875 -1.734375 L 4.1875 -43.3125 C 4.1875 -43.78125 4.359375 -44.1875 4.703125 -44.53125 C 5.046875 -44.875 5.453125 -45.046875 5.921875 -45.046875 L 27.28125 -45.046875 C 33.375 -45.046875 37.867188 -43.941406 40.765625 -41.734375 C 43.660156 -39.523438 45.109375 -36.191406 45.109375 -31.734375 L 45.109375 -31.53125 C 45.109375 -29.6875 44.570312 -28.046875 43.5 -26.609375 C 42.425781 -25.171875 41.25 -24.128906 39.96875 -23.484375 C 41.6875 -22.804688 43.132812 -21.597656 44.3125 -19.859375 C 45.488281 -18.117188 46.078125 -16.21875 46.078125 -14.15625 C 46.078125 -4.71875 40.03125 0 27.9375 0 Z M 27.9375 0 "/></g></g></g><g fill="#000000" fill-opacity="1"><g transform="translate(83.531153, 119.620089)"><g><path d="M 45.625 -2.125 C 45.757812 -1.863281 45.828125 -1.582031 45.828125 -1.28125 C 45.828125 -0.988281 45.6875 -0.703125 45.40625 -0.421875 C 45.125 -0.140625 44.789062 0 44.40625 0 L 31.21875 0 C 29.882812 0 28.960938 -0.578125 28.453125 -1.734375 L 22.90625 -14.03125 L 20.265625 -14.03125 L 20.265625 -1.734375 C 20.265625 -1.265625 20.09375 -0.859375 19.75 -0.515625 C 19.414062 -0.171875 19.007812 0 18.53125 0 L 5.921875 0 C 5.453125 0 5.046875 -0.171875 4.703125 -0.515625 C 4.359375 -0.859375 4.1875 -1.265625 4.1875 -1.734375 L 4.1875 -43.3125 C 4.1875 -43.78125 4.359375 -44.1875 4.703125 -44.53125 C 5.046875 -44.875 5.453125 -45.046875 5.921875 -45.046875 L 24.96875 -45.046875 C 31.144531 -45.046875 35.972656 -43.660156 39.453125 -40.890625 C 42.929688 -38.128906 44.671875 -34.160156 44.671875 -28.984375 C 44.671875 -23.816406 42.351562 -19.753906 37.71875 -16.796875 Z M 20.265625 -33.078125 L 20.265625 -26.265625 L 24.96875 -26.265625 C 25.914062 -26.265625 26.644531 -26.570312 27.15625 -27.1875 C 27.675781 -27.8125 27.9375 -28.59375 27.9375 -29.53125 C 27.9375 -30.476562 27.6875 -31.304688 27.1875 -32.015625 C 26.695312 -32.722656 25.957031 -33.078125 24.96875 -33.078125 Z M 20.265625 -33.078125 "/></g></g></g><g fill="#000000" fill-opacity="1"><g transform="translate(131.92636, 119.620089)"><g><path d="M 18.28125 -45.046875 L 32.25 -45.046875 C 33.789062 -45.046875 34.753906 -44.335938 35.140625 -42.921875 L 49.5 -1.859375 C 49.539062 -1.734375 49.5625 -1.53125 49.5625 -1.25 C 49.5625 -0.976562 49.421875 -0.703125 49.140625 -0.421875 C 48.859375 -0.140625 48.523438 0 48.140625 0 L 36.234375 0 C 34.941406 0 34.101562 -0.535156 33.71875 -1.609375 L 32.1875 -5.859375 L 18.34375 -5.859375 L 16.796875 -1.609375 C 16.410156 -0.535156 15.570312 0 14.28125 0 L 2.375 0 C 1.988281 0 1.65625 -0.140625 1.375 -0.421875 C 1.101562 -0.703125 0.96875 -0.976562 0.96875 -1.25 C 0.96875 -1.53125 0.988281 -1.734375 1.03125 -1.859375 L 15.375 -42.921875 C 15.769531 -44.335938 16.738281 -45.046875 18.28125 -45.046875 Z M 21.625 -18.40625 L 28.890625 -18.40625 L 25.234375 -30.375 Z M 28.125 -59.34375 L 40.796875 -59.34375 C 41.617188 -59.34375 42.03125 -58.910156 42.03125 -58.046875 C 42.03125 -57.753906 41.921875 -57.5 41.703125 -57.28125 L 31.53125 -48.90625 C 31.0625 -48.476562 30.179688 -48.265625 28.890625 -48.265625 L 19.890625 -48.265625 C 19.203125 -48.265625 18.859375 -48.609375 18.859375 -49.296875 C 18.859375 -49.640625 18.960938 -49.921875 19.171875 -50.140625 L 25.75 -58.109375 C 26.476562 -58.929688 27.269531 -59.34375 28.125 -59.34375 Z M 28.125 -59.34375 "/></g></g></g><g fill="#000000" fill-opacity="1"><g transform="translate(183.088857, 119.620089)"><g><path d="M 3.03125 -30.890625 C 3.03125 -35.265625 4.84375 -38.820312 8.46875 -41.5625 C 12.09375 -44.3125 16.851562 -45.6875 22.75 -45.6875 C 28.644531 -45.6875 33.46875 -44.25 37.21875 -41.375 C 40.976562 -38.507812 42.859375 -35.507812 42.859375 -32.375 C 42.859375 -31.988281 42.71875 -31.65625 42.4375 -31.375 C 42.164062 -31.09375 41.859375 -30.953125 41.515625 -30.953125 L 28.640625 -30.953125 C 27.648438 -30.953125 26.75 -31.316406 25.9375 -32.046875 C 25.125 -32.773438 24.03125 -33.140625 22.65625 -33.140625 C 20.59375 -33.140625 19.5625 -32.539062 19.5625 -31.34375 C 19.5625 -30.695312 20.066406 -30.160156 21.078125 -29.734375 C 22.085938 -29.304688 23.960938 -28.921875 26.703125 -28.578125 C 33.097656 -27.765625 37.65625 -26.273438 40.375 -24.109375 C 43.101562 -21.941406 44.46875 -18.65625 44.46875 -14.25 C 44.46875 -9.851562 42.460938 -6.269531 38.453125 -3.5 C 34.441406 -0.738281 29.195312 0.640625 22.71875 0.640625 C 16.238281 0.640625 11.15625 -0.6875 7.46875 -3.34375 C 3.78125 -6.007812 1.9375 -9.25 1.9375 -13.0625 C 1.9375 -13.445312 2.070312 -13.78125 2.34375 -14.0625 C 2.625 -14.34375 2.957031 -14.484375 3.34375 -14.484375 L 15.578125 -14.484375 C 16.472656 -14.484375 17.46875 -14.050781 18.5625 -13.1875 C 19.65625 -12.332031 21.171875 -11.90625 23.109375 -11.90625 C 26.328125 -11.90625 27.9375 -12.503906 27.9375 -13.703125 C 27.9375 -14.472656 27.351562 -15.0625 26.1875 -15.46875 C 25.03125 -15.882812 22.84375 -16.304688 19.625 -16.734375 C 8.5625 -18.191406 3.03125 -22.910156 3.03125 -30.890625 Z M 3.03125 -30.890625 "/></g></g></g><g fill="#000000" fill-opacity="1"><g transform="translate(230.132591, 119.620089)"><g><path d="M 4.3125 -28 L 27.03125 -28 C 27.5 -28 27.90625 -27.828125 28.25 -27.484375 C 28.59375 -27.140625 28.765625 -26.734375 28.765625 -26.265625 L 28.765625 -17.125 C 28.765625 -16.644531 28.59375 -16.234375 28.25 -15.890625 C 27.90625 -15.546875 27.5 -15.375 27.03125 -15.375 L 4.3125 -15.375 C 3.84375 -15.375 3.4375 -15.546875 3.09375 -15.890625 C 2.75 -16.234375 2.578125 -16.644531 2.578125 -17.125 L 2.578125 -26.265625 C 2.578125 -26.734375 2.75 -27.140625 3.09375 -27.484375 C 3.4375 -27.828125 3.84375 -28 4.3125 -28 Z M 4.3125 -28 "/></g></g></g><g fill="#000000" fill-opacity="1"><g transform="translate(262.11721, 119.620089)"><g><path d="M 3.03125 -30.890625 C 3.03125 -35.265625 4.84375 -38.820312 8.46875 -41.5625 C 12.09375 -44.3125 16.851562 -45.6875 22.75 -45.6875 C 28.644531 -45.6875 33.46875 -44.25 37.21875 -41.375 C 40.976562 -38.507812 42.859375 -35.507812 42.859375 -32.375 C 42.859375 -31.988281 42.71875 -31.65625 42.4375 -31.375 C 42.164062 -31.09375 41.859375 -30.953125 41.515625 -30.953125 L 28.640625 -30.953125 C 27.648438 -30.953125 26.75 -31.316406 25.9375 -32.046875 C 25.125 -32.773438 24.03125 -33.140625 22.65625 -33.140625 C 20.59375 -33.140625 19.5625 -32.539062 19.5625 -31.34375 C 19.5625 -30.695312 20.066406 -30.160156 21.078125 -29.734375 C 22.085938 -29.304688 23.960938 -28.921875 26.703125 -28.578125 C 33.097656 -27.765625 37.65625 -26.273438 40.375 -24.109375 C 43.101562 -21.941406 44.46875 -18.65625 44.46875 -14.25 C 44.46875 -9.851562 42.460938 -6.269531 38.453125 -3.5 C 34.441406 -0.738281 29.195312 0.640625 22.71875 0.640625 C 16.238281 0.640625 11.15625 -0.6875 7.46875 -3.34375 C 3.78125 -6.007812 1.9375 -9.25 1.9375 -13.0625 C 1.9375 -13.445312 2.070312 -13.78125 2.34375 -14.0625 C 2.625 -14.34375 2.957031 -14.484375 3.34375 -14.484375 L 15.578125 -14.484375 C 16.472656 -14.484375 17.46875 -14.050781 18.5625 -13.1875 C 19.65625 -12.332031 21.171875 -11.90625 23.109375 -11.90625 C 26.328125 -11.90625 27.9375 -12.503906 27.9375 -13.703125 C 27.9375 -14.472656 27.351562 -15.0625 26.1875 -15.46875 C 25.03125 -15.882812 22.84375 -16.304688 19.625 -16.734375 C 8.5625 -18.191406 3.03125 -22.910156 3.03125 -30.890625 Z M 3.03125 -30.890625 "/></g></g></g><g fill="#000000" fill-opacity="1"><g transform="translate(309.16096, 119.620089)"><g><path d="M 5.921875 -45.046875 L 25.09375 -45.046875 C 31.28125 -45.046875 36.109375 -43.71875 39.578125 -41.0625 C 43.054688 -38.40625 44.796875 -34.476562 44.796875 -29.28125 C 44.796875 -24.09375 43.066406 -20.253906 39.609375 -17.765625 C 36.160156 -15.273438 31.320312 -14.03125 25.09375 -14.03125 L 20.921875 -14.03125 L 20.921875 -1.734375 C 20.921875 -1.265625 20.75 -0.859375 20.40625 -0.515625 C 20.0625 -0.171875 19.648438 0 19.171875 0 L 5.921875 0 C 5.453125 0 5.046875 -0.171875 4.703125 -0.515625 C 4.359375 -0.859375 4.1875 -1.265625 4.1875 -1.734375 L 4.1875 -43.3125 C 4.1875 -43.78125 4.359375 -44.1875 4.703125 -44.53125 C 5.046875 -44.875 5.453125 -45.046875 5.921875 -45.046875 Z M 20.59375 -33.078125 L 20.59375 -25.9375 L 25.09375 -25.9375 C 25.875 -25.9375 26.5625 -26.222656 27.15625 -26.796875 C 27.757812 -27.378906 28.0625 -28.207031 28.0625 -29.28125 C 28.0625 -30.351562 27.820312 -31.253906 27.34375 -31.984375 C 26.875 -32.710938 26.125 -33.078125 25.09375 -33.078125 Z M 20.59375 -33.078125 "/></g></g></g><g clip-path="url(#de83040709)"><g transform="matrix(1, 0, 0, 1, 152, 152)"><g clip-path="url(#b89c190c2e)"><g fill="#212121" fill-opacity="1"><g transform="translate(1.029089, 10.827428)"><g><path d="M 6.5 -7.109375 L 3.734375 -7.109375 L 3.734375 0 L 2.96875 0 L 2.96875 -7.109375 L 0.1875 -7.109375 L 0.1875 -7.78125 L 6.5 -7.78125 Z M 6.5 -7.109375 "/></g></g></g><g clip-path="url(#f412dba457)"><g fill="#212121" fill-opacity="1"><g transform="translate(7.932256, 10.827428)"><g><path d="M 6.203125 -0.6875 L 6.203125 0 L 0.96875 0 L 0.96875 -7.78125 L 6.109375 -7.78125 L 6.109375 -7.109375 L 1.75 -7.109375 L 1.75 -4.296875 L 5.546875 -4.296875 L 5.546875 -3.65625 L 1.75 -3.65625 L 1.75 -0.6875 Z M 2.34375 -9.125 L 3.421875 -10.046875 L 3.96875 -10.046875 L 5.0625 -9.125 L 4.625 -8.890625 L 3.703125 -9.578125 L 2.765625 -8.890625 Z M 2.34375 -9.125 "/></g></g></g></g><g fill="#212121" fill-opacity="1"><g transform="translate(14.82446, 10.827428)"><g><path d="M 0.9375 -7.78125 L 3.484375 -4.40625 L 6.015625 -7.78125 L 6.875 -7.78125 L 3.890625 -3.84375 L 6.796875 0 L 5.921875 0 L 3.484375 -3.28125 L 1.015625 0 L 0.140625 0 L 3.03125 -3.84375 L 0.0625 -7.78125 Z M 0.9375 -7.78125 "/></g></g></g><g fill="#212121" fill-opacity="1"><g transform="translate(21.968686, 10.827428)"><g><path d="M 6.5 -7.109375 L 3.734375 -7.109375 L 3.734375 0 L 2.96875 0 L 2.96875 -7.109375 L 0.1875 -7.109375 L 0.1875 -7.78125 L 6.5 -7.78125 Z M 6.5 -7.109375 "/></g></g></g><g fill="#212121" fill-opacity="1"><g transform="translate(28.871853, 10.827428)"><g><path d="M 0.96875 0 L 0.96875 -7.78125 L 1.75 -7.78125 L 1.75 0 Z M 0.96875 0 "/></g></g></g><g fill="#212121" fill-opacity="1"><g transform="translate(31.80859, 10.827428)"><g><path d="M 0.96875 0 L 0.96875 -7.78125 L 1.75 -7.78125 L 1.75 -0.6875 L 6.234375 -0.6875 L 6.234375 0 Z M 0.96875 0 "/></g></g></g><g fill="#212121" fill-opacity="1"><g transform="translate(38.415916, 10.827428)"><g/></g></g><g fill="#212121" fill-opacity="1"><g transform="translate(41.429352, 10.827428)"><g><path d="M 6.203125 -0.6875 L 6.203125 0 L 0.96875 0 L 0.96875 -7.78125 L 6.109375 -7.78125 L 6.109375 -7.109375 L 1.75 -7.109375 L 1.75 -4.296875 L 5.546875 -4.296875 L 5.546875 -3.65625 L 1.75 -3.65625 L 1.75 -0.6875 Z M 6.203125 -0.6875 "/></g></g></g><g fill="#212121" fill-opacity="1"><g transform="translate(48.321556, 10.827428)"><g/></g></g><g fill="#212121" fill-opacity="1"><g transform="translate(51.334991, 10.827428)"><g><path d="M 7.875 0 L 7.875 -6.34375 L 5.0625 -1.421875 L 4.578125 -1.421875 L 1.75 -6.34375 L 1.75 0 L 0.96875 0 L 0.96875 -7.78125 L 1.765625 -7.78125 L 4.796875 -2.453125 L 7.859375 -7.78125 L 8.640625 -7.78125 L 8.640625 0 Z M 7.875 0 "/></g></g></g><g fill="#212121" fill-opacity="1"><g transform="translate(61.16368, 10.827428)"><g><path d="M 4.109375 0.0625 C 3.566406 0.0625 3.070312 -0.046875 2.625 -0.265625 C 2.175781 -0.492188 1.789062 -0.796875 1.46875 -1.171875 C 1.144531 -1.546875 0.894531 -1.96875 0.71875 -2.4375 C 0.539062 -2.90625 0.453125 -3.390625 0.453125 -3.890625 C 0.453125 -4.410156 0.546875 -4.90625 0.734375 -5.375 C 0.921875 -5.851562 1.175781 -6.273438 1.5 -6.640625 C 1.832031 -7.015625 2.222656 -7.304688 2.671875 -7.515625 C 3.117188 -7.734375 3.601562 -7.84375 4.125 -7.84375 C 4.675781 -7.84375 5.171875 -7.726562 5.609375 -7.5 C 6.054688 -7.269531 6.4375 -6.960938 6.75 -6.578125 C 7.070312 -6.203125 7.320312 -5.78125 7.5 -5.3125 C 7.675781 -4.851562 7.765625 -4.378906 7.765625 -3.890625 C 7.765625 -3.367188 7.671875 -2.867188 7.484375 -2.390625 C 7.304688 -1.921875 7.050781 -1.5 6.71875 -1.125 C 6.394531 -0.757812 6.007812 -0.46875 5.5625 -0.25 C 5.113281 -0.0390625 4.628906 0.0625 4.109375 0.0625 Z M 1.234375 -3.890625 C 1.234375 -3.460938 1.300781 -3.050781 1.4375 -2.65625 C 1.570312 -2.269531 1.765625 -1.925781 2.015625 -1.625 C 2.273438 -1.320312 2.582031 -1.082031 2.9375 -0.90625 C 3.300781 -0.726562 3.691406 -0.640625 4.109375 -0.640625 C 4.554688 -0.640625 4.957031 -0.734375 5.3125 -0.921875 C 5.664062 -1.109375 5.96875 -1.351562 6.21875 -1.65625 C 6.476562 -1.96875 6.671875 -2.316406 6.796875 -2.703125 C 6.929688 -3.097656 7 -3.492188 7 -3.890625 C 7 -4.316406 6.925781 -4.722656 6.78125 -5.109375 C 6.644531 -5.492188 6.445312 -5.835938 6.1875 -6.140625 C 5.925781 -6.453125 5.617188 -6.695312 5.265625 -6.875 C 4.921875 -7.050781 4.535156 -7.140625 4.109375 -7.140625 C 3.671875 -7.140625 3.273438 -7.046875 2.921875 -6.859375 C 2.566406 -6.679688 2.265625 -6.4375 2.015625 -6.125 C 1.765625 -5.8125 1.570312 -5.460938 1.4375 -5.078125 C 1.300781 -4.691406 1.234375 -4.296875 1.234375 -3.890625 Z M 1.234375 -3.890625 "/></g></g></g><g fill="#212121" fill-opacity="1"><g transform="translate(69.611788, 10.827428)"><g><path d="M 0.96875 0 L 0.96875 -7.78125 L 3.625 -7.78125 C 4.445312 -7.78125 5.132812 -7.609375 5.6875 -7.265625 C 6.238281 -6.921875 6.648438 -6.453125 6.921875 -5.859375 C 7.203125 -5.273438 7.34375 -4.625 7.34375 -3.90625 C 7.34375 -3.113281 7.191406 -2.425781 6.890625 -1.84375 C 6.585938 -1.257812 6.15625 -0.804688 5.59375 -0.484375 C 5.039062 -0.160156 4.382812 0 3.625 0 Z M 6.578125 -3.90625 C 6.578125 -4.53125 6.460938 -5.082031 6.234375 -5.5625 C 6.003906 -6.039062 5.671875 -6.414062 5.234375 -6.6875 C 4.796875 -6.96875 4.257812 -7.109375 3.625 -7.109375 L 1.75 -7.109375 L 1.75 -0.6875 L 3.625 -0.6875 C 4.257812 -0.6875 4.796875 -0.828125 5.234375 -1.109375 C 5.679688 -1.390625 6.015625 -1.773438 6.234375 -2.265625 C 6.460938 -2.753906 6.578125 -3.300781 6.578125 -3.90625 Z M 6.578125 -3.90625 "/></g></g></g><g fill="#212121" fill-opacity="1"><g transform="translate(77.665441, 10.827428)"><g><path d="M 3.390625 -7.78125 L 4.03125 -7.78125 L 7.265625 0 L 6.453125 0 L 5.453125 -2.4375 L 1.953125 -2.4375 L 0.953125 0 L 0.125 0 Z M 5.28125 -3.03125 L 3.703125 -6.890625 L 2.109375 -3.03125 Z M 5.28125 -3.03125 "/></g></g></g></g></g></g></g></g></g></g></g></g></svg>